<svg width="180" height="158" viewBox="0 0 180 158" fill="none" xmlns="http://www.w3.org/2000/svg">
<path d="M53.3336 157H13C6.09644 157 0.5 151.404 0.5 144.5V140.565V41.7596C0.5 34.856 6.09644 29.2596 13 29.2596H80.5432C84.6817 29.2596 88.7168 27.968 92.0845 25.5652L101.346 18.9577C104.168 16.9445 107.483 15.7527 110.924 15.5H166.5C173.404 15.5 179 21.0964 179 28V51.9224V130.69C179 137.593 173.404 143.19 166.5 143.19H84.4752C80.096 143.19 75.8396 144.636 72.3684 147.303L64.831 153.094C61.5347 155.627 57.4925 157 53.3336 157Z" stroke="#7D5BA8"/>
</svg>
