<svg width="1100" height="680" viewBox="0 0 1100 680" fill="none" xmlns="http://www.w3.org/2000/svg">
<rect x="0.5" y="0.5" width="1099" height="679" rx="12.5" fill="#050505" fill-opacity="0.6" stroke="#515151"/>
<path d="M47.6 24C47.12 24 46.682 23.886 46.286 23.658C45.902 23.418 45.59 23.106 45.35 22.722C45.122 22.326 45.008 21.888 45.008 21.408V13.632C45.008 13.152 45.122 12.72 45.35 12.336C45.59 11.94 45.902 11.628 46.286 11.4C46.682 11.16 47.12 11.04 47.6 11.04H57.932V13.65H48.212C48.02 13.65 47.87 13.704 47.762 13.812C47.654 13.908 47.6 14.058 47.6 14.262V20.778C47.6 20.97 47.654 21.12 47.762 21.228C47.87 21.336 48.02 21.39 48.212 21.39H57.932V24H47.6ZM62.3648 24C61.8848 24 61.4468 23.886 61.0508 23.658C60.6668 23.418 60.3548 23.106 60.1148 22.722C59.8868 22.326 59.7728 21.888 59.7728 21.408V13.632C59.7728 13.152 59.8868 12.72 60.1148 12.336C60.3548 11.94 60.6668 11.628 61.0508 11.4C61.4468 11.16 61.8848 11.04 62.3648 11.04H70.1408C70.6088 11.04 71.0348 11.16 71.4188 11.4C71.8148 11.628 72.1328 11.94 72.3728 12.336C72.6128 12.72 72.7328 13.152 72.7328 13.632V21.408C72.7328 21.888 72.6128 22.326 72.3728 22.722C72.1328 23.106 71.8148 23.418 71.4188 23.658C71.0348 23.886 70.6088 24 70.1408 24H62.3648ZM62.4728 21.39H69.9968C70.0328 21.39 70.0568 21.384 70.0688 21.372C70.0928 21.348 70.1048 21.318 70.1048 21.282V13.758C70.1048 13.722 70.0928 13.698 70.0688 13.686C70.0568 13.662 70.0328 13.65 69.9968 13.65H62.4728C62.4368 13.65 62.4068 13.662 62.3828 13.686C62.3708 13.698 62.3648 13.722 62.3648 13.758V21.282C62.3648 21.318 62.3708 21.348 62.3828 21.372C62.4068 21.384 62.4368 21.39 62.4728 21.39ZM74.715 24V11.04H77.469L85.047 20.076V11.04H87.675V24H84.921L77.307 14.928V24H74.715ZM92.2296 24C91.7616 24 91.3296 23.886 90.9336 23.658C90.5376 23.418 90.2256 23.106 89.9976 22.722C89.7696 22.326 89.6556 21.888 89.6556 21.408V20.31H92.2476V21.282C92.2476 21.318 92.2536 21.348 92.2656 21.372C92.2896 21.384 92.3136 21.39 92.3376 21.39H99.8796C99.9036 21.39 99.9276 21.384 99.9516 21.372C99.9756 21.348 99.9876 21.318 99.9876 21.282V18.924C99.9876 18.9 99.9756 18.882 99.9516 18.87C99.9276 18.846 99.9036 18.834 99.8796 18.834H92.2296C91.7616 18.834 91.3296 18.72 90.9336 18.492C90.5376 18.252 90.2256 17.934 89.9976 17.538C89.7696 17.142 89.6556 16.71 89.6556 16.242V13.632C89.6556 13.152 89.7696 12.72 89.9976 12.336C90.2256 11.94 90.5376 11.628 90.9336 11.4C91.3296 11.16 91.7616 11.04 92.2296 11.04H100.024C100.492 11.04 100.918 11.16 101.302 11.4C101.698 11.628 102.016 11.94 102.256 12.336C102.496 12.72 102.616 13.152 102.616 13.632V14.73H99.9876V13.758C99.9876 13.722 99.9756 13.698 99.9516 13.686C99.9276 13.662 99.9036 13.65 99.8796 13.65H92.3376C92.3136 13.65 92.2896 13.662 92.2656 13.686C92.2536 13.698 92.2476 13.722 92.2476 13.758V16.116C92.2476 16.14 92.2536 16.164 92.2656 16.188C92.2896 16.2 92.3136 16.206 92.3376 16.206H100.024C100.492 16.206 100.918 16.326 101.302 16.566C101.698 16.794 102.016 17.106 102.256 17.502C102.496 17.898 102.616 18.33 102.616 18.798V21.408C102.616 21.888 102.496 22.326 102.256 22.722C102.016 23.106 101.698 23.418 101.302 23.658C100.918 23.886 100.492 24 100.024 24H92.2296ZM107.136 24C106.656 24 106.218 23.886 105.822 23.658C105.438 23.418 105.126 23.106 104.886 22.722C104.658 22.326 104.544 21.888 104.544 21.408V11.04H107.136V21.282C107.136 21.318 107.142 21.348 107.154 21.372C107.178 21.384 107.208 21.39 107.244 21.39H114.768C114.804 21.39 114.828 21.384 114.84 21.372C114.864 21.348 114.876 21.318 114.876 21.282V11.04H117.504V21.408C117.504 21.888 117.384 22.326 117.144 22.722C116.904 23.106 116.586 23.418 116.19 23.658C115.806 23.886 115.38 24 114.912 24H107.136ZM119.487 24V11.04H122.241L126.777 16.458L131.295 11.04H134.067V24H131.457V14.91L126.777 20.508L122.079 14.928V24H119.487ZM136.222 24V11.04H148.174V13.65H138.85V16.206H146.356V18.834H138.85V21.39H148.174V24H136.222ZM160.155 24L156.321 19.428H159.723L162.891 23.19V24H160.155ZM149.967 24V11.058H160.317C160.797 11.058 161.229 11.178 161.613 11.418C162.009 11.646 162.327 11.958 162.567 12.354C162.807 12.75 162.927 13.182 162.927 13.65V17.07C162.927 17.538 162.807 17.97 162.567 18.366C162.327 18.75 162.009 19.062 161.613 19.302C161.229 19.53 160.797 19.644 160.317 19.644L152.559 19.662V24H149.967ZM152.667 17.034H160.191C160.227 17.034 160.251 17.028 160.263 17.016C160.287 16.992 160.299 16.968 160.299 16.944V13.758C160.299 13.722 160.287 13.698 160.263 13.686C160.251 13.662 160.227 13.65 160.191 13.65H152.667C152.631 13.65 152.601 13.662 152.577 13.686C152.565 13.698 152.559 13.722 152.559 13.758V16.944C152.559 16.968 152.565 16.992 152.577 17.016C152.601 17.028 152.631 17.034 152.667 17.034Z" fill="white"/>
<line x1="1" y1="32.5" x2="1100" y2="32.5" stroke="#515151"/>
<path d="M21.3723 25.7103C20.6206 25.7103 20.4599 25.7115 20.2927 25.7126C19.7435 25.7159 19.1757 25.7214 18.6013 25.717C16.5896 25.7335 14.1179 25.5761 12.2063 24.8828C12.1711 24.8696 12.1425 24.9136 12.1679 24.9411C12.5079 25.2999 12.8744 25.6344 13.2639 25.9415C14.9697 27.2818 17.1211 28.0819 19.4618 28.0819C20.7956 28.0819 22.0689 27.8222 23.2299 27.3512C23.9628 27.0551 24.6528 26.6744 25.2856 26.2232C23.9859 25.9602 22.7049 25.7103 21.3723 25.7103Z" fill="#515151"/>
<path d="M18.4439 24.2321C22.0403 24.2321 24.2919 22.3536 25.2658 20.004C25.6345 19.1126 25.8237 18.1574 25.838 17.2088C25.8513 16.2602 25.6906 15.3204 25.356 14.4653C24.8124 13.0699 23.7967 11.8968 22.3231 11.2827C22.7633 11.8968 23.0781 12.5714 23.2739 13.2702C23.5931 14.4092 23.5975 15.612 23.319 16.7279C23.0384 17.8526 22.4717 18.8948 21.654 19.7014C20.6592 20.6819 19.3023 21.3103 17.6461 21.3158C15.192 21.3246 12.6829 21.3323 10.2255 21.3323C10.1198 21.3323 10.0495 21.4446 10.0979 21.5381C11.3645 24.0131 15.8259 24.2046 18.445 24.2321H18.4439Z" fill="#515151"/>
<path d="M21.3723 25.7103C20.6206 25.7103 20.4599 25.7115 20.2927 25.7126C19.7435 25.7159 19.1757 25.7214 18.6013 25.717C16.5896 25.7335 14.1179 25.5761 12.2063 24.8828C12.1711 24.8696 12.1425 24.9136 12.1679 24.9411C12.5079 25.2999 12.8744 25.6344 13.2639 25.9415C14.9697 27.2818 17.1211 28.0819 19.4618 28.0819C20.7956 28.0819 22.0689 27.8222 23.2299 27.3512C23.9628 27.0551 24.6528 26.6744 25.2856 26.2232C23.9859 25.9602 22.7049 25.7103 21.3723 25.7103Z" fill="#515151"/>
<path d="M18.4439 24.2321C22.0403 24.2321 24.2919 22.3536 25.2658 20.004C25.6345 19.1126 25.8237 18.1574 25.838 17.2088C25.8513 16.2602 25.6906 15.3204 25.356 14.4653C24.8124 13.0699 23.7967 11.8968 22.3231 11.2827C22.7633 11.8968 23.0781 12.5714 23.2739 13.2702C23.5931 14.4092 23.5975 15.612 23.319 16.7279C23.0384 17.8526 22.4717 18.8948 21.654 19.7014C20.6592 20.6819 19.3023 21.3103 17.6461 21.3158C15.192 21.3246 12.6829 21.3323 10.2255 21.3323C10.1198 21.3323 10.0495 21.4446 10.0979 21.5381C11.3645 24.0131 15.8259 24.2046 18.445 24.2321H18.4439Z" fill="#515151"/>
<path d="M30.9849 25.6287L28.4813 22.5077L28.5319 22.3878C31.7288 15.8333 26.8614 7.97585 19.4969 8.00006C12.5936 8.11451 10.2947 13.8414 10.0042 14.6525C9.9877 14.6987 10.0218 14.7471 10.0713 14.7471C11.9388 14.7471 15.6728 14.9419 15.9974 12.5318C16.3144 14.9452 20.0571 14.7526 21.9246 14.7515C21.9741 14.7515 22.0083 14.702 21.9918 14.6558C21.2754 12.6562 19.9306 10.9273 18.172 9.73442C22.7841 8.99269 27.1002 12.5792 27.3159 17.1429C27.3159 17.1616 27.3159 17.1803 27.3159 17.199C27.4777 20.1835 25.9117 22.9424 23.5159 24.3928L30.9156 25.7464C30.9805 25.7585 31.0256 25.6826 30.9838 25.632L30.9849 25.6287Z" fill="#515151"/>
</svg>
