<svg width="388" height="731" viewBox="0 0 388 731" fill="none" xmlns="http://www.w3.org/2000/svg">
<rect x="0.5" y="0.5" width="387" height="730" rx="12.5" fill="#050505" fill-opacity="0.6" stroke="#515151"/>
<line x1="1" y1="35.5" x2="388" y2="35.5" stroke="#515151"/>
<path d="M21.3723 25.7103C20.6206 25.7103 20.4599 25.7115 20.2927 25.7126C19.7435 25.7159 19.1757 25.7214 18.6013 25.717C16.5896 25.7335 14.1179 25.5761 12.2063 24.8828C12.1711 24.8696 12.1425 24.9136 12.1679 24.9411C12.5079 25.2999 12.8744 25.6344 13.2639 25.9415C14.9697 27.2818 17.1211 28.0819 19.4618 28.0819C20.7956 28.0819 22.0689 27.8222 23.2299 27.3512C23.9628 27.0551 24.6528 26.6744 25.2856 26.2232C23.9859 25.9602 22.7049 25.7103 21.3723 25.7103Z" fill="#515151"/>
<path d="M18.4437 24.2321C22.04 24.2321 24.2917 22.3536 25.2656 20.004C25.6342 19.1126 25.8235 18.1574 25.8378 17.2088C25.851 16.2602 25.6904 15.3204 25.3558 14.4653C24.8122 13.0699 23.7964 11.8968 22.3229 11.2827C22.7631 11.8968 23.0778 12.5714 23.2737 13.2702C23.5928 14.4092 23.5972 15.612 23.3188 16.7279C23.0382 17.8526 22.4714 18.8948 21.6538 19.7014C20.6589 20.6819 19.302 21.3103 17.6458 21.3158C15.1917 21.3246 12.6826 21.3323 10.2252 21.3323C10.1196 21.3323 10.0492 21.4446 10.0976 21.5381C11.3643 24.0131 15.8256 24.2046 18.4448 24.2321H18.4437Z" fill="#515151"/>
<path d="M21.3723 25.7103C20.6206 25.7103 20.4599 25.7115 20.2927 25.7126C19.7435 25.7159 19.1757 25.7214 18.6013 25.717C16.5896 25.7335 14.1179 25.5761 12.2063 24.8828C12.1711 24.8696 12.1425 24.9136 12.1679 24.9411C12.5079 25.2999 12.8744 25.6344 13.2639 25.9415C14.9697 27.2818 17.1211 28.0819 19.4618 28.0819C20.7956 28.0819 22.0689 27.8222 23.2299 27.3512C23.9628 27.0551 24.6528 26.6744 25.2856 26.2232C23.9859 25.9602 22.7049 25.7103 21.3723 25.7103Z" fill="#515151"/>
<path d="M18.4437 24.2321C22.04 24.2321 24.2917 22.3536 25.2656 20.004C25.6342 19.1126 25.8235 18.1574 25.8378 17.2088C25.851 16.2602 25.6904 15.3204 25.3558 14.4653C24.8122 13.0699 23.7964 11.8968 22.3229 11.2827C22.7631 11.8968 23.0778 12.5714 23.2737 13.2702C23.5928 14.4092 23.5972 15.612 23.3188 16.7279C23.0382 17.8526 22.4714 18.8948 21.6538 19.7014C20.6589 20.6819 19.302 21.3103 17.6458 21.3158C15.1917 21.3246 12.6826 21.3323 10.2252 21.3323C10.1196 21.3323 10.0492 21.4446 10.0976 21.5381C11.3643 24.0131 15.8256 24.2046 18.4448 24.2321H18.4437Z" fill="#515151"/>
<path d="M30.9849 25.6287L28.4813 22.5077L28.5319 22.3878C31.7288 15.8333 26.8614 7.97585 19.4969 8.00006C12.5936 8.11451 10.2947 13.8414 10.0042 14.6525C9.9877 14.6987 10.0218 14.7471 10.0713 14.7471C11.9388 14.7471 15.6728 14.9419 15.9974 12.5318C16.3144 14.9452 20.0571 14.7526 21.9246 14.7515C21.9741 14.7515 22.0083 14.702 21.9918 14.6558C21.2754 12.6562 19.9306 10.9273 18.172 9.73442C22.7841 8.99269 27.1002 12.5792 27.3159 17.1429C27.3159 17.1616 27.3159 17.1803 27.3159 17.199C27.4777 20.1835 25.9117 22.9424 23.5159 24.3928L30.9156 25.7464C30.9805 25.7585 31.0256 25.6826 30.9838 25.632L30.9849 25.6287Z" fill="#515151"/>
<path d="M50.6156 26C50.1356 26 49.6976 25.886 49.3016 25.658C48.9176 25.418 48.6056 25.106 48.3656 24.722C48.1376 24.326 48.0236 23.888 48.0236 23.408V15.632C48.0236 15.152 48.1376 14.72 48.3656 14.336C48.6056 13.94 48.9176 13.628 49.3016 13.4C49.6976 13.16 50.1356 13.04 50.6156 13.04H60.9476V15.65H51.2276C51.0356 15.65 50.8856 15.704 50.7776 15.812C50.6696 15.908 50.6156 16.058 50.6156 16.262V22.778C50.6156 22.97 50.6696 23.12 50.7776 23.228C50.8856 23.336 51.0356 23.39 51.2276 23.39H60.9476V26H50.6156ZM65.3804 26C64.9004 26 64.4624 25.886 64.0664 25.658C63.6824 25.418 63.3704 25.106 63.1304 24.722C62.9024 24.326 62.7884 23.888 62.7884 23.408V15.632C62.7884 15.152 62.9024 14.72 63.1304 14.336C63.3704 13.94 63.6824 13.628 64.0664 13.4C64.4624 13.16 64.9004 13.04 65.3804 13.04H73.1564C73.6244 13.04 74.0504 13.16 74.4344 13.4C74.8304 13.628 75.1484 13.94 75.3884 14.336C75.6284 14.72 75.7484 15.152 75.7484 15.632V23.408C75.7484 23.888 75.6284 24.326 75.3884 24.722C75.1484 25.106 74.8304 25.418 74.4344 25.658C74.0504 25.886 73.6244 26 73.1564 26H65.3804ZM65.4884 23.39H73.0124C73.0484 23.39 73.0724 23.384 73.0844 23.372C73.1084 23.348 73.1204 23.318 73.1204 23.282V15.758C73.1204 15.722 73.1084 15.698 73.0844 15.686C73.0724 15.662 73.0484 15.65 73.0124 15.65H65.4884C65.4524 15.65 65.4224 15.662 65.3984 15.686C65.3864 15.698 65.3804 15.722 65.3804 15.758V23.282C65.3804 23.318 65.3864 23.348 65.3984 23.372C65.4224 23.384 65.4524 23.39 65.4884 23.39ZM77.7307 26V13.04H80.4847L88.0627 22.076V13.04H90.6907V26H87.9367L80.3227 16.928V26H77.7307ZM95.2452 26C94.7772 26 94.3452 25.886 93.9492 25.658C93.5532 25.418 93.2412 25.106 93.0132 24.722C92.7852 24.326 92.6712 23.888 92.6712 23.408V22.31H95.2632V23.282C95.2632 23.318 95.2692 23.348 95.2812 23.372C95.3052 23.384 95.3292 23.39 95.3532 23.39H102.895C102.919 23.39 102.943 23.384 102.967 23.372C102.991 23.348 103.003 23.318 103.003 23.282V20.924C103.003 20.9 102.991 20.882 102.967 20.87C102.943 20.846 102.919 20.834 102.895 20.834H95.2452C94.7772 20.834 94.3452 20.72 93.9492 20.492C93.5532 20.252 93.2412 19.934 93.0132 19.538C92.7852 19.142 92.6712 18.71 92.6712 18.242V15.632C92.6712 15.152 92.7852 14.72 93.0132 14.336C93.2412 13.94 93.5532 13.628 93.9492 13.4C94.3452 13.16 94.7772 13.04 95.2452 13.04H103.039C103.507 13.04 103.933 13.16 104.317 13.4C104.713 13.628 105.031 13.94 105.271 14.336C105.511 14.72 105.631 15.152 105.631 15.632V16.73H103.003V15.758C103.003 15.722 102.991 15.698 102.967 15.686C102.943 15.662 102.919 15.65 102.895 15.65H95.3532C95.3292 15.65 95.3052 15.662 95.2812 15.686C95.2692 15.698 95.2632 15.722 95.2632 15.758V18.116C95.2632 18.14 95.2692 18.164 95.2812 18.188C95.3052 18.2 95.3292 18.206 95.3532 18.206H103.039C103.507 18.206 103.933 18.326 104.317 18.566C104.713 18.794 105.031 19.106 105.271 19.502C105.511 19.898 105.631 20.33 105.631 20.798V23.408C105.631 23.888 105.511 24.326 105.271 24.722C105.031 25.106 104.713 25.418 104.317 25.658C103.933 25.886 103.507 26 103.039 26H95.2452ZM110.152 26C109.672 26 109.234 25.886 108.838 25.658C108.454 25.418 108.142 25.106 107.902 24.722C107.674 24.326 107.56 23.888 107.56 23.408V13.04H110.152V23.282C110.152 23.318 110.158 23.348 110.17 23.372C110.194 23.384 110.224 23.39 110.26 23.39H117.784C117.82 23.39 117.844 23.384 117.856 23.372C117.88 23.348 117.892 23.318 117.892 23.282V13.04H120.52V23.408C120.52 23.888 120.4 24.326 120.16 24.722C119.92 25.106 119.602 25.418 119.206 25.658C118.822 25.886 118.396 26 117.928 26H110.152ZM122.502 26V13.04H125.256L129.792 18.458L134.31 13.04H137.082V26H134.472V16.91L129.792 22.508L125.094 16.928V26H122.502ZM139.237 26V13.04H151.189V15.65H141.865V18.206H149.371V20.834H141.865V23.39H151.189V26H139.237ZM163.171 26L159.337 21.428H162.739L165.907 25.19V26H163.171ZM152.983 26V13.058H163.333C163.813 13.058 164.245 13.178 164.629 13.418C165.025 13.646 165.343 13.958 165.583 14.354C165.823 14.75 165.943 15.182 165.943 15.65V19.07C165.943 19.538 165.823 19.97 165.583 20.366C165.343 20.75 165.025 21.062 164.629 21.302C164.245 21.53 163.813 21.644 163.333 21.644L155.575 21.662V26H152.983ZM155.683 19.034H163.207C163.243 19.034 163.267 19.028 163.279 19.016C163.303 18.992 163.315 18.968 163.315 18.944V15.758C163.315 15.722 163.303 15.698 163.279 15.686C163.267 15.662 163.243 15.65 163.207 15.65H155.683C155.647 15.65 155.617 15.662 155.593 15.686C155.581 15.698 155.575 15.722 155.575 15.758V18.944C155.575 18.968 155.581 18.992 155.593 19.016C155.617 19.028 155.647 19.034 155.683 19.034Z" fill="white"/>
</svg>
