<svg width="388" height="731" viewBox="0 0 388 731" fill="none" xmlns="http://www.w3.org/2000/svg">
<rect x="0.5" y="0.5" width="387" height="730" rx="12.5" fill="#050505" fill-opacity="0.6" stroke="#515151"/>
<path d="M53.368 20.4964V21.7764H67.176V24.9284H49.864V12.9764H66.664V16.0804H53.368V17.3924H65.496V20.4964H53.368ZM84.4198 21.6324V12.9284H87.9238V24.8964H83.1398L72.2118 16.3204V24.8804H68.7238V12.9284H73.4918L84.4198 21.6324ZM89.0203 16.0324V12.9284H108.252V16.0324H100.396V24.8804H96.9083V16.0324H89.0203ZM112.852 20.4964V21.7764H126.66V24.9284H109.348V12.9764H126.148V16.0804H112.852V17.3924H124.98V20.4964H112.852ZM143.536 12.9284C144.544 12.9284 145.504 12.9284 146.24 13.6484C146.976 14.3844 147.36 15.3604 147.36 16.3684V17.9844C147.36 19.0084 146.976 19.9684 146.256 20.6884C145.504 21.4084 144.544 21.4244 143.536 21.4244H143.408L147.28 24.8804H142.608L138.688 21.4244H131.696V24.8804H128.208V12.9284H143.536ZM143.872 17.9684V16.3844C143.872 16.1924 143.712 16.0324 143.52 16.0324H131.696V18.3044H143.52C143.712 18.3044 143.872 18.1764 143.872 17.9684ZM164.302 12.9124C165.342 12.9124 166.286 12.9284 167.038 13.6644C167.742 14.3844 168.126 15.3604 168.126 16.3524V17.9684C168.126 18.9924 167.742 19.9524 167.022 20.6884C166.27 21.4084 165.326 21.4084 164.302 21.4084H152.462V24.8644H148.974V12.9124H164.302ZM164.286 16.0324H152.462V18.3044H164.286C164.494 18.3044 164.638 18.1604 164.638 17.9524V16.3684C164.638 16.1764 164.494 16.0324 164.286 16.0324ZM184.989 12.9284C185.997 12.9284 186.957 12.9284 187.693 13.6484C188.429 14.3844 188.813 15.3604 188.813 16.3684V17.9844C188.813 19.0084 188.429 19.9684 187.709 20.6884C186.957 21.4084 185.997 21.4244 184.989 21.4244H184.861L188.733 24.8804H184.061L180.141 21.4244H173.149V24.8804H169.661V12.9284H184.989ZM185.325 17.9684V16.3844C185.325 16.1924 185.165 16.0324 184.973 16.0324H173.149V18.3044H184.973C185.165 18.3044 185.325 18.1764 185.325 17.9684ZM190.411 24.8804V12.9284H193.915V24.8804H190.411ZM199.169 21.7604C200.593 21.7604 208.033 21.7604 209.441 21.7604C209.601 21.7604 209.713 21.6644 209.713 21.5204C209.713 21.4404 209.713 20.7204 209.713 20.6404C209.713 20.5124 209.601 20.4004 209.441 20.4004C208.017 20.3844 200.577 20.3844 199.153 20.3684C198.193 20.3684 197.249 20.1924 196.545 19.5044C195.809 18.7844 195.441 17.8564 195.441 16.8324C195.441 15.5524 195.553 14.6084 196.497 13.6644C197.201 12.9284 198.161 12.9284 199.153 12.9284C200.561 12.9284 207.841 12.9284 209.249 12.9284C210.225 12.9284 211.137 12.9124 211.857 13.6164C212.593 14.3204 212.961 15.2804 212.961 16.2564C212.961 16.1764 212.961 17.2164 212.961 17.1204C212.353 17.1204 210.081 17.1204 209.473 17.1204C209.473 17.0404 209.473 16.3684 209.473 16.2884C209.473 16.1764 209.393 16.0804 209.313 16.0324C207.905 16.0324 200.577 16.0324 199.169 16.0324C199.025 16.0324 198.929 16.1284 198.929 16.2884C198.929 16.3684 198.929 17.0884 198.929 17.1844C198.929 17.3124 199.025 17.4244 199.169 17.4244C200.593 17.4244 208.049 17.4404 209.473 17.4404C210.465 17.4404 211.377 17.6164 212.097 18.3204C213.073 19.2964 213.201 20.2244 213.201 21.5364C213.201 22.5444 212.801 23.4884 212.081 24.1924C211.361 24.9124 210.449 24.8804 209.473 24.8804H199.153C198.193 24.8804 197.281 24.9124 196.577 24.2084C195.825 23.5044 195.441 22.5444 195.441 21.5364C195.441 21.4564 195.441 20.7684 195.441 20.6884C196.049 20.6884 198.321 20.6884 198.929 20.6884C198.929 20.7684 198.929 21.4404 198.929 21.5204C198.929 21.6644 199.025 21.7604 199.169 21.7604ZM218.384 20.4964V21.7764H232.192V24.9284H214.88V12.9764H231.68V16.0804H218.384V17.3924H230.512V20.4964H218.384Z" fill="white"/>
<line x1="1" y1="35.5" x2="388" y2="35.5" stroke="#515151"/>
<path d="M21.3721 25.7103C20.6205 25.7103 20.4598 25.7115 20.2925 25.7126C19.7434 25.7159 19.1756 25.7214 18.6011 25.717C16.5895 25.7335 14.1177 25.5761 12.2062 24.8828C12.171 24.8696 12.1424 24.9136 12.1677 24.9411C12.5078 25.2999 12.8742 25.6344 13.2638 25.9415C14.9696 27.2818 17.121 28.0819 19.4617 28.0819C20.7955 28.0819 22.0688 27.8222 23.2298 27.3512C23.9627 27.0551 24.6527 26.6744 25.2855 26.2232C23.9858 25.9602 22.7048 25.7103 21.3721 25.7103Z" fill="#515151"/>
<path d="M18.4439 24.2321C22.0403 24.2321 24.2919 22.3536 25.2658 20.004C25.6345 19.1126 25.8237 18.1574 25.838 17.2088C25.8513 16.2602 25.6906 15.3204 25.356 14.4653C24.8124 13.0699 23.7967 11.8968 22.3231 11.2827C22.7633 11.8968 23.0781 12.5714 23.2739 13.2702C23.5931 14.4092 23.5975 15.612 23.319 16.7279C23.0384 17.8526 22.4717 18.8948 21.654 19.7014C20.6592 20.6819 19.3023 21.3103 17.6461 21.3158C15.192 21.3246 12.6829 21.3323 10.2255 21.3323C10.1198 21.3323 10.0495 21.4446 10.0979 21.5381C11.3645 24.0131 15.8259 24.2046 18.445 24.2321H18.4439Z" fill="#515151"/>
<path d="M21.3721 25.7103C20.6205 25.7103 20.4598 25.7115 20.2925 25.7126C19.7434 25.7159 19.1756 25.7214 18.6011 25.717C16.5895 25.7335 14.1177 25.5761 12.2062 24.8828C12.171 24.8696 12.1424 24.9136 12.1677 24.9411C12.5078 25.2999 12.8742 25.6344 13.2638 25.9415C14.9696 27.2818 17.121 28.0819 19.4617 28.0819C20.7955 28.0819 22.0688 27.8222 23.2298 27.3512C23.9627 27.0551 24.6527 26.6744 25.2855 26.2232C23.9858 25.9602 22.7048 25.7103 21.3721 25.7103Z" fill="#515151"/>
<path d="M18.4439 24.2321C22.0403 24.2321 24.2919 22.3536 25.2658 20.004C25.6345 19.1126 25.8237 18.1574 25.838 17.2088C25.8513 16.2602 25.6906 15.3204 25.356 14.4653C24.8124 13.0699 23.7967 11.8968 22.3231 11.2827C22.7633 11.8968 23.0781 12.5714 23.2739 13.2702C23.5931 14.4092 23.5975 15.612 23.319 16.7279C23.0384 17.8526 22.4717 18.8948 21.654 19.7014C20.6592 20.6819 19.3023 21.3103 17.6461 21.3158C15.192 21.3246 12.6829 21.3323 10.2255 21.3323C10.1198 21.3323 10.0495 21.4446 10.0979 21.5381C11.3645 24.0131 15.8259 24.2046 18.445 24.2321H18.4439Z" fill="#515151"/>
<path d="M30.9849 25.6287L28.4813 22.5077L28.5319 22.3878C31.7288 15.8333 26.8614 7.97585 19.4969 8.00006C12.5936 8.11451 10.2947 13.8414 10.0042 14.6525C9.9877 14.6987 10.0218 14.7471 10.0713 14.7471C11.9388 14.7471 15.6728 14.9419 15.9974 12.5318C16.3144 14.9452 20.0571 14.7526 21.9246 14.7515C21.9741 14.7515 22.0083 14.702 21.9918 14.6558C21.2754 12.6562 19.9306 10.9273 18.172 9.73442C22.7841 8.99269 27.1002 12.5792 27.3159 17.1429C27.3159 17.1616 27.3159 17.1803 27.3159 17.199C27.4777 20.1835 25.9117 22.9424 23.5159 24.3928L30.9156 25.7464C30.9805 25.7585 31.0256 25.6826 30.9838 25.632L30.9849 25.6287Z" fill="#515151"/>
</svg>
