<svg width="1100" height="680" viewBox="0 0 1100 680" fill="none" xmlns="http://www.w3.org/2000/svg">
<rect x="0.5" y="0.5" width="1099" height="679" rx="12.5" fill="#050505" fill-opacity="0.6" stroke="#515151"/>
<path d="M45.044 20V7.04H56.996V9.65H47.672V12.206H55.178V14.834H47.672V17.39H56.996V20H45.044ZM58.7893 20V7.04H61.5433L69.1213 16.076V7.04H71.7493V20H68.9953L61.3813 10.928V20H58.7893ZM78.3018 20V9.65H73.1178V7.04H86.0778V9.65H80.9118V20H78.3018ZM87.46 20V7.04H99.412V9.65H90.088V12.206H97.594V14.834H90.088V17.39H99.412V20H87.46ZM111.393 20L107.559 15.428H110.961L114.129 19.19V20H111.393ZM101.205 20V7.058H111.555C112.035 7.058 112.467 7.178 112.851 7.418C113.247 7.646 113.565 7.958 113.805 8.354C114.045 8.75 114.165 9.182 114.165 9.65V13.07C114.165 13.538 114.045 13.97 113.805 14.366C113.565 14.75 113.247 15.062 112.851 15.302C112.467 15.53 112.035 15.644 111.555 15.644L103.797 15.662V20H101.205ZM103.905 13.034H111.429C111.465 13.034 111.489 13.028 111.501 13.016C111.525 12.992 111.537 12.968 111.537 12.944V9.758C111.537 9.722 111.525 9.698 111.501 9.686C111.489 9.662 111.465 9.65 111.429 9.65H103.905C103.869 9.65 103.839 9.662 103.815 9.686C103.803 9.698 103.797 9.722 103.797 9.758V12.944C103.797 12.968 103.803 12.992 103.815 13.016C103.839 13.028 103.869 13.034 103.905 13.034ZM116.059 20V7.058H126.409C126.889 7.058 127.321 7.178 127.705 7.418C128.101 7.646 128.419 7.958 128.659 8.354C128.899 8.75 129.019 9.182 129.019 9.65V13.07C129.019 13.538 128.899 13.97 128.659 14.366C128.419 14.75 128.101 15.062 127.705 15.302C127.321 15.53 126.889 15.644 126.409 15.644L118.651 15.662V20H116.059ZM118.759 13.034H126.283C126.319 13.034 126.343 13.028 126.355 13.016C126.379 12.992 126.391 12.968 126.391 12.944V9.758C126.391 9.722 126.379 9.698 126.355 9.686C126.343 9.662 126.319 9.65 126.283 9.65H118.759C118.723 9.65 118.693 9.662 118.669 9.686C118.657 9.698 118.651 9.722 118.651 9.758V12.944C118.651 12.968 118.657 12.992 118.669 13.016C118.693 13.028 118.723 13.034 118.759 13.034ZM140.485 20L136.651 15.428H140.053L143.221 19.19V20H140.485ZM130.297 20V7.058H140.647C141.127 7.058 141.559 7.178 141.943 7.418C142.339 7.646 142.657 7.958 142.897 8.354C143.137 8.75 143.257 9.182 143.257 9.65V13.07C143.257 13.538 143.137 13.97 142.897 14.366C142.657 14.75 142.339 15.062 141.943 15.302C141.559 15.53 141.127 15.644 140.647 15.644L132.889 15.662V20H130.297ZM132.997 13.034H140.521C140.557 13.034 140.581 13.028 140.593 13.016C140.617 12.992 140.629 12.968 140.629 12.944V9.758C140.629 9.722 140.617 9.698 140.593 9.686C140.581 9.662 140.557 9.65 140.521 9.65H132.997C132.961 9.65 132.931 9.662 132.907 9.686C132.895 9.698 132.889 9.722 132.889 9.758V12.944C132.889 12.968 132.895 12.992 132.907 13.016C132.931 13.028 132.961 13.034 132.997 13.034ZM144.791 20V7.04H147.365V20H144.791ZM151.538 20C151.07 20 150.638 19.886 150.242 19.658C149.846 19.418 149.534 19.106 149.306 18.722C149.078 18.326 148.964 17.888 148.964 17.408V16.31H151.556V17.282C151.556 17.318 151.562 17.348 151.574 17.372C151.598 17.384 151.622 17.39 151.646 17.39H159.188C159.212 17.39 159.236 17.384 159.26 17.372C159.284 17.348 159.296 17.318 159.296 17.282V14.924C159.296 14.9 159.284 14.882 159.26 14.87C159.236 14.846 159.212 14.834 159.188 14.834H151.538C151.07 14.834 150.638 14.72 150.242 14.492C149.846 14.252 149.534 13.934 149.306 13.538C149.078 13.142 148.964 12.71 148.964 12.242V9.632C148.964 9.152 149.078 8.72 149.306 8.336C149.534 7.94 149.846 7.628 150.242 7.4C150.638 7.16 151.07 7.04 151.538 7.04H159.332C159.8 7.04 160.226 7.16 160.61 7.4C161.006 7.628 161.324 7.94 161.564 8.336C161.804 8.72 161.924 9.152 161.924 9.632V10.73H159.296V9.758C159.296 9.722 159.284 9.698 159.26 9.686C159.236 9.662 159.212 9.65 159.188 9.65H151.646C151.622 9.65 151.598 9.662 151.574 9.686C151.562 9.698 151.556 9.722 151.556 9.758V12.116C151.556 12.14 151.562 12.164 151.574 12.188C151.598 12.2 151.622 12.206 151.646 12.206H159.332C159.8 12.206 160.226 12.326 160.61 12.566C161.006 12.794 161.324 13.106 161.564 13.502C161.804 13.898 161.924 14.33 161.924 14.798V17.408C161.924 17.888 161.804 18.326 161.564 18.722C161.324 19.106 161.006 19.418 160.61 19.658C160.226 19.886 159.8 20 159.332 20H151.538ZM163.925 20V7.04H175.877V9.65H166.553V12.206H174.059V14.834H166.553V17.39H175.877V20H163.925Z" fill="white"/>
<line x1="1" y1="25.5" x2="1100" y2="25.5" stroke="#515151"/>
<path d="M21.3723 20.7103C20.6206 20.7103 20.4599 20.7115 20.2927 20.7126C19.7435 20.7159 19.1757 20.7214 18.6013 20.717C16.5896 20.7335 14.1179 20.5761 12.2063 19.8828C12.1711 19.8696 12.1425 19.9136 12.1679 19.9411C12.5079 20.2999 12.8744 20.6344 13.2639 20.9415C14.9697 22.2818 17.1211 23.0819 19.4618 23.0819C20.7956 23.0819 22.0689 22.8222 23.2299 22.3512C23.9628 22.0551 24.6528 21.6744 25.2856 21.2232C23.9859 20.9602 22.7049 20.7103 21.3723 20.7103Z" fill="#515151"/>
<path d="M18.4439 19.2321C22.0403 19.2321 24.2919 17.3536 25.2658 15.004C25.6345 14.1126 25.8237 13.1574 25.838 12.2088C25.8513 11.2602 25.6906 10.3204 25.356 9.46532C24.8124 8.0699 23.7967 6.89678 22.3231 6.28271C22.7633 6.89678 23.0781 7.57139 23.2739 8.27019C23.5931 9.40919 23.5975 10.612 23.319 11.7279C23.0384 12.8526 22.4717 13.8948 21.654 14.7014C20.6592 15.6819 19.3023 16.3103 17.6461 16.3158C15.192 16.3246 12.6829 16.3323 10.2255 16.3323C10.1198 16.3323 10.0495 16.4446 10.0979 16.5381C11.3645 19.0131 15.8259 19.2046 18.445 19.2321H18.4439Z" fill="#515151"/>
<path d="M21.3723 20.7103C20.6206 20.7103 20.4599 20.7115 20.2927 20.7126C19.7435 20.7159 19.1757 20.7214 18.6013 20.717C16.5896 20.7335 14.1179 20.5761 12.2063 19.8828C12.1711 19.8696 12.1425 19.9136 12.1679 19.9411C12.5079 20.2999 12.8744 20.6344 13.2639 20.9415C14.9697 22.2818 17.1211 23.0819 19.4618 23.0819C20.7956 23.0819 22.0689 22.8222 23.2299 22.3512C23.9628 22.0551 24.6528 21.6744 25.2856 21.2232C23.9859 20.9602 22.7049 20.7103 21.3723 20.7103Z" fill="#515151"/>
<path d="M18.4439 19.2321C22.0403 19.2321 24.2919 17.3536 25.2658 15.004C25.6345 14.1126 25.8237 13.1574 25.838 12.2088C25.8513 11.2602 25.6906 10.3204 25.356 9.46532C24.8124 8.0699 23.7967 6.89678 22.3231 6.28271C22.7633 6.89678 23.0781 7.57139 23.2739 8.27019C23.5931 9.40919 23.5975 10.612 23.319 11.7279C23.0384 12.8526 22.4717 13.8948 21.654 14.7014C20.6592 15.6819 19.3023 16.3103 17.6461 16.3158C15.192 16.3246 12.6829 16.3323 10.2255 16.3323C10.1198 16.3323 10.0495 16.4446 10.0979 16.5381C11.3645 19.0131 15.8259 19.2046 18.445 19.2321H18.4439Z" fill="#515151"/>
<path d="M30.9849 20.6287L28.4813 17.5077L28.5319 17.3878C31.7288 10.8333 26.8614 2.97585 19.4969 3.00006C12.5936 3.11451 10.2947 8.84141 10.0042 9.65247C9.9877 9.69869 10.0218 9.74711 10.0713 9.74711C11.9388 9.74711 15.6728 9.94189 15.9974 7.53184C16.3144 9.94519 20.0571 9.75261 21.9246 9.75151C21.9741 9.75151 22.0083 9.70199 21.9918 9.65577C21.2754 7.6562 19.9306 5.92734 18.172 4.73442C22.7841 3.99269 27.1002 7.57916 27.3159 12.1429C27.3159 12.1616 27.3159 12.1803 27.3159 12.199C27.4777 15.1835 25.9117 17.9424 23.5159 19.3928L30.9156 20.7464C30.9805 20.7585 31.0256 20.6826 30.9838 20.632L30.9849 20.6287Z" fill="#515151"/>
</svg>
