<svg width="388" height="731" viewBox="0 0 388 731" fill="none" xmlns="http://www.w3.org/2000/svg">
<rect x="0.5" y="0.5" width="387" height="730" rx="12.5" fill="#050505" fill-opacity="0.6" stroke="#515151"/>
<line x1="1" y1="35.5" x2="388" y2="35.5" stroke="#515151"/>
<path d="M21.3721 25.7103C20.6205 25.7103 20.4598 25.7115 20.2925 25.7126C19.7434 25.7159 19.1756 25.7214 18.6011 25.717C16.5895 25.7335 14.1177 25.5761 12.2062 24.8828C12.171 24.8696 12.1424 24.9136 12.1677 24.9411C12.5078 25.2999 12.8742 25.6344 13.2638 25.9415C14.9696 27.2818 17.121 28.0819 19.4617 28.0819C20.7955 28.0819 22.0688 27.8222 23.2298 27.3512C23.9627 27.0551 24.6527 26.6744 25.2855 26.2232C23.9858 25.9602 22.7048 25.7103 21.3721 25.7103Z" fill="#515151"/>
<path d="M18.4439 24.2321C22.0403 24.2321 24.2919 22.3536 25.2658 20.004C25.6345 19.1126 25.8237 18.1574 25.838 17.2088C25.8513 16.2602 25.6906 15.3204 25.356 14.4653C24.8124 13.0699 23.7967 11.8968 22.3231 11.2827C22.7633 11.8968 23.0781 12.5714 23.2739 13.2702C23.5931 14.4092 23.5975 15.612 23.319 16.7279C23.0384 17.8526 22.4717 18.8948 21.654 19.7014C20.6592 20.6819 19.3023 21.3103 17.6461 21.3158C15.192 21.3246 12.6829 21.3323 10.2255 21.3323C10.1198 21.3323 10.0495 21.4446 10.0979 21.5381C11.3645 24.0131 15.8259 24.2046 18.445 24.2321H18.4439Z" fill="#515151"/>
<path d="M21.3721 25.7103C20.6205 25.7103 20.4598 25.7115 20.2925 25.7126C19.7434 25.7159 19.1756 25.7214 18.6011 25.717C16.5895 25.7335 14.1177 25.5761 12.2062 24.8828C12.171 24.8696 12.1424 24.9136 12.1677 24.9411C12.5078 25.2999 12.8742 25.6344 13.2638 25.9415C14.9696 27.2818 17.121 28.0819 19.4617 28.0819C20.7955 28.0819 22.0688 27.8222 23.2298 27.3512C23.9627 27.0551 24.6527 26.6744 25.2855 26.2232C23.9858 25.9602 22.7048 25.7103 21.3721 25.7103Z" fill="#515151"/>
<path d="M18.4439 24.2321C22.0403 24.2321 24.2919 22.3536 25.2658 20.004C25.6345 19.1126 25.8237 18.1574 25.838 17.2088C25.8513 16.2602 25.6906 15.3204 25.356 14.4653C24.8124 13.0699 23.7967 11.8968 22.3231 11.2827C22.7633 11.8968 23.0781 12.5714 23.2739 13.2702C23.5931 14.4092 23.5975 15.612 23.319 16.7279C23.0384 17.8526 22.4717 18.8948 21.654 19.7014C20.6592 20.6819 19.3023 21.3103 17.6461 21.3158C15.192 21.3246 12.6829 21.3323 10.2255 21.3323C10.1198 21.3323 10.0495 21.4446 10.0979 21.5381C11.3645 24.0131 15.8259 24.2046 18.445 24.2321H18.4439Z" fill="#515151"/>
<path d="M30.9849 25.6287L28.4813 22.5077L28.5319 22.3878C31.7288 15.8333 26.8614 7.97585 19.4969 8.00006C12.5936 8.11451 10.2947 13.8414 10.0042 14.6525C9.9877 14.6987 10.0218 14.7471 10.0713 14.7471C11.9388 14.7471 15.6728 14.9419 15.9974 12.5318C16.3144 14.9452 20.0571 14.7526 21.9246 14.7515C21.9741 14.7515 22.0083 14.702 21.9918 14.6558C21.2754 12.6562 19.9306 10.9273 18.172 9.73442C22.7841 8.99269 27.1002 12.5792 27.3159 17.1429C27.3159 17.1616 27.3159 17.1803 27.3159 17.199C27.4777 20.1835 25.9117 22.9424 23.5159 24.3928L30.9156 25.7464C30.9805 25.7585 31.0256 25.6826 30.9838 25.632L30.9849 25.6287Z" fill="#515151"/>
<path d="M51.008 25V12.04H53.762L58.298 17.458L62.816 12.04H65.588V25H62.978V15.91L58.298 21.508L53.6 15.928V25H51.008ZM67.7432 25V14.632C67.7432 14.152 67.8572 13.72 68.0852 13.336C68.3252 12.94 68.6372 12.628 69.0212 12.4C69.4172 12.16 69.8552 12.04 70.3352 12.04H78.0932C78.5732 12.04 79.0052 12.16 79.3892 12.4C79.7852 12.628 80.1032 12.94 80.3432 13.336C80.5832 13.72 80.7032 14.152 80.7032 14.632V25H78.0752V20.734H70.3352V25H67.7432ZM70.3352 18.142H78.0752V14.758C78.0752 14.722 78.0632 14.698 78.0392 14.686C78.0272 14.662 78.0032 14.65 77.9672 14.65H70.4432C70.4072 14.65 70.3772 14.662 70.3532 14.686C70.3412 14.698 70.3352 14.722 70.3352 14.758V18.142ZM92.9421 25L89.1081 20.428H92.5101L95.6781 24.19V25H92.9421ZM82.7541 25V12.058H93.1041C93.5841 12.058 94.0161 12.178 94.4001 12.418C94.7961 12.646 95.1141 12.958 95.3541 13.354C95.5941 13.75 95.7141 14.182 95.7141 14.65V18.07C95.7141 18.538 95.5941 18.97 95.3541 19.366C95.1141 19.75 94.7961 20.062 94.4001 20.302C94.0161 20.53 93.5841 20.644 93.1041 20.644L85.3461 20.662V25H82.7541ZM85.4541 18.034H92.9781C93.0141 18.034 93.0381 18.028 93.0501 18.016C93.0741 17.992 93.0861 17.968 93.0861 17.944V14.758C93.0861 14.722 93.0741 14.698 93.0501 14.686C93.0381 14.662 93.0141 14.65 92.9781 14.65H85.4541C85.4181 14.65 85.3881 14.662 85.3641 14.686C85.3521 14.698 85.3461 14.722 85.3461 14.758V17.944C85.3461 17.968 85.3521 17.992 85.3641 18.016C85.3881 18.028 85.4181 18.034 85.4541 18.034ZM97.6256 25V12.04H100.236V17.206H103.026L107.346 12.04H110.118V12.868L105.366 18.52L110.118 24.172V25H107.346L103.026 19.834H100.236V25H97.6256ZM111.987 25V12.04H123.939V14.65H114.615V17.206H122.121V19.834H114.615V22.39H123.939V25H111.987ZM130.269 25V14.65H125.085V12.04H138.045V14.65H132.879V25H130.269ZM139.391 25V12.058H149.741C150.221 12.058 150.653 12.178 151.037 12.418C151.433 12.646 151.751 12.958 151.991 13.354C152.231 13.75 152.351 14.182 152.351 14.65V18.07C152.351 18.538 152.231 18.97 151.991 19.366C151.751 19.75 151.433 20.062 151.037 20.302C150.653 20.53 150.221 20.644 149.741 20.644L141.983 20.662V25H139.391ZM142.091 18.034H149.615C149.651 18.034 149.675 18.028 149.687 18.016C149.711 17.992 149.723 17.968 149.723 17.944V14.758C149.723 14.722 149.711 14.698 149.687 14.686C149.675 14.662 149.651 14.65 149.615 14.65H142.091C142.055 14.65 142.025 14.662 142.001 14.686C141.989 14.698 141.983 14.722 141.983 14.758V17.944C141.983 17.968 141.989 17.992 142.001 18.016C142.025 18.028 142.055 18.034 142.091 18.034ZM153.647 25V12.022H156.239V22.39H166.607V25H153.647ZM167.692 25V14.632C167.692 14.152 167.806 13.72 168.034 13.336C168.274 12.94 168.586 12.628 168.97 12.4C169.366 12.16 169.804 12.04 170.284 12.04H178.042C178.522 12.04 178.954 12.16 179.338 12.4C179.734 12.628 180.052 12.94 180.292 13.336C180.532 13.72 180.652 14.152 180.652 14.632V25H178.024V20.734H170.284V25H167.692ZM170.284 18.142H178.024V14.758C178.024 14.722 178.012 14.698 177.988 14.686C177.976 14.662 177.952 14.65 177.916 14.65H170.392C170.356 14.65 170.326 14.662 170.302 14.686C170.29 14.698 170.284 14.722 170.284 14.758V18.142ZM185.295 25C184.815 25 184.377 24.886 183.981 24.658C183.597 24.418 183.285 24.106 183.045 23.722C182.817 23.326 182.703 22.888 182.703 22.408V14.632C182.703 14.152 182.817 13.72 183.045 13.336C183.285 12.94 183.597 12.628 183.981 12.4C184.377 12.16 184.815 12.04 185.295 12.04H195.627V14.65H185.907C185.715 14.65 185.565 14.704 185.457 14.812C185.349 14.908 185.295 15.058 185.295 15.262V21.778C185.295 21.97 185.349 22.12 185.457 22.228C185.565 22.336 185.715 22.39 185.907 22.39H195.627V25H185.295ZM197.54 25V12.04H209.492V14.65H200.168V17.206H207.674V19.834H200.168V22.39H209.492V25H197.54Z" fill="white"/>
</svg>
