<svg width="1100" height="680" viewBox="0 0 1100 680" fill="none" xmlns="http://www.w3.org/2000/svg">
<rect x="0.5" y="0.5" width="1099" height="679" rx="12.5" fill="#050505" fill-opacity="0.6" stroke="#515151"/>
<path d="M45.008 20V7.04H47.762L52.298 12.458L56.816 7.04H59.588V20H56.978V10.91L52.298 16.508L47.6 10.928V20H45.008ZM61.7432 20V9.632C61.7432 9.152 61.8572 8.72 62.0852 8.336C62.3252 7.94 62.6372 7.628 63.0212 7.4C63.4172 7.16 63.8552 7.04 64.3352 7.04H72.0932C72.5732 7.04 73.0052 7.16 73.3892 7.4C73.7852 7.628 74.1032 7.94 74.3432 8.336C74.5832 8.72 74.7032 9.152 74.7032 9.632V20H72.0752V15.734H64.3352V20H61.7432ZM64.3352 13.142H72.0752V9.758C72.0752 9.722 72.0632 9.698 72.0392 9.686C72.0272 9.662 72.0032 9.65 71.9672 9.65H64.4432C64.4072 9.65 64.3772 9.662 64.3532 9.686C64.3412 9.698 64.3352 9.722 64.3352 9.758V13.142ZM86.9421 20L83.1081 15.428H86.5101L89.6781 19.19V20H86.9421ZM76.7541 20V7.058H87.1041C87.5841 7.058 88.0161 7.178 88.4001 7.418C88.7961 7.646 89.1141 7.958 89.3541 8.354C89.5941 8.75 89.7141 9.182 89.7141 9.65V13.07C89.7141 13.538 89.5941 13.97 89.3541 14.366C89.1141 14.75 88.7961 15.062 88.4001 15.302C88.0161 15.53 87.5841 15.644 87.1041 15.644L79.3461 15.662V20H76.7541ZM79.4541 13.034H86.9781C87.0141 13.034 87.0381 13.028 87.0501 13.016C87.0741 12.992 87.0861 12.968 87.0861 12.944V9.758C87.0861 9.722 87.0741 9.698 87.0501 9.686C87.0381 9.662 87.0141 9.65 86.9781 9.65H79.4541C79.4181 9.65 79.3881 9.662 79.3641 9.686C79.3521 9.698 79.3461 9.722 79.3461 9.758V12.944C79.3461 12.968 79.3521 12.992 79.3641 13.016C79.3881 13.028 79.4181 13.034 79.4541 13.034ZM91.6256 20V7.04H94.2356V12.206H97.0256L101.346 7.04H104.118V7.868L99.3656 13.52L104.118 19.172V20H101.346L97.0256 14.834H94.2356V20H91.6256ZM105.987 20V7.04H117.939V9.65H108.615V12.206H116.121V14.834H108.615V17.39H117.939V20H105.987ZM124.269 20V9.65H119.085V7.04H132.045V9.65H126.879V20H124.269ZM133.391 20V7.058H143.741C144.221 7.058 144.653 7.178 145.037 7.418C145.433 7.646 145.751 7.958 145.991 8.354C146.231 8.75 146.351 9.182 146.351 9.65V13.07C146.351 13.538 146.231 13.97 145.991 14.366C145.751 14.75 145.433 15.062 145.037 15.302C144.653 15.53 144.221 15.644 143.741 15.644L135.983 15.662V20H133.391ZM136.091 13.034H143.615C143.651 13.034 143.675 13.028 143.687 13.016C143.711 12.992 143.723 12.968 143.723 12.944V9.758C143.723 9.722 143.711 9.698 143.687 9.686C143.675 9.662 143.651 9.65 143.615 9.65H136.091C136.055 9.65 136.025 9.662 136.001 9.686C135.989 9.698 135.983 9.722 135.983 9.758V12.944C135.983 12.968 135.989 12.992 136.001 13.016C136.025 13.028 136.055 13.034 136.091 13.034ZM147.647 20V7.022H150.239V17.39H160.607V20H147.647ZM161.692 20V9.632C161.692 9.152 161.806 8.72 162.034 8.336C162.274 7.94 162.586 7.628 162.97 7.4C163.366 7.16 163.804 7.04 164.284 7.04H172.042C172.522 7.04 172.954 7.16 173.338 7.4C173.734 7.628 174.052 7.94 174.292 8.336C174.532 8.72 174.652 9.152 174.652 9.632V20H172.024V15.734H164.284V20H161.692ZM164.284 13.142H172.024V9.758C172.024 9.722 172.012 9.698 171.988 9.686C171.976 9.662 171.952 9.65 171.916 9.65H164.392C164.356 9.65 164.326 9.662 164.302 9.686C164.29 9.698 164.284 9.722 164.284 9.758V13.142ZM179.295 20C178.815 20 178.377 19.886 177.981 19.658C177.597 19.418 177.285 19.106 177.045 18.722C176.817 18.326 176.703 17.888 176.703 17.408V9.632C176.703 9.152 176.817 8.72 177.045 8.336C177.285 7.94 177.597 7.628 177.981 7.4C178.377 7.16 178.815 7.04 179.295 7.04H189.627V9.65H179.907C179.715 9.65 179.565 9.704 179.457 9.812C179.349 9.908 179.295 10.058 179.295 10.262V16.778C179.295 16.97 179.349 17.12 179.457 17.228C179.565 17.336 179.715 17.39 179.907 17.39H189.627V20H179.295ZM191.54 20V7.04H203.492V9.65H194.168V12.206H201.674V14.834H194.168V17.39H203.492V20H191.54Z" fill="white"/>
<line x1="1" y1="25.5" x2="1100" y2="25.5" stroke="#515151"/>
<path d="M21.3723 20.7103C20.6206 20.7103 20.4599 20.7115 20.2927 20.7126C19.7435 20.7159 19.1757 20.7214 18.6013 20.717C16.5896 20.7335 14.1179 20.5761 12.2063 19.8828C12.1711 19.8696 12.1425 19.9136 12.1679 19.9411C12.5079 20.2999 12.8744 20.6344 13.2639 20.9415C14.9697 22.2818 17.1211 23.0819 19.4618 23.0819C20.7956 23.0819 22.0689 22.8222 23.2299 22.3512C23.9628 22.0551 24.6528 21.6744 25.2856 21.2232C23.9859 20.9602 22.7049 20.7103 21.3723 20.7103Z" fill="#515151"/>
<path d="M18.4439 19.2321C22.0403 19.2321 24.2919 17.3536 25.2658 15.004C25.6345 14.1126 25.8237 13.1574 25.838 12.2088C25.8513 11.2602 25.6906 10.3204 25.356 9.46532C24.8124 8.0699 23.7967 6.89678 22.3231 6.28271C22.7633 6.89678 23.0781 7.57139 23.2739 8.27019C23.5931 9.40919 23.5975 10.612 23.319 11.7279C23.0384 12.8526 22.4717 13.8948 21.654 14.7014C20.6592 15.6819 19.3023 16.3103 17.6461 16.3158C15.192 16.3246 12.6829 16.3323 10.2255 16.3323C10.1198 16.3323 10.0495 16.4446 10.0979 16.5381C11.3645 19.0131 15.8259 19.2046 18.445 19.2321H18.4439Z" fill="#515151"/>
<path d="M21.3723 20.7103C20.6206 20.7103 20.4599 20.7115 20.2927 20.7126C19.7435 20.7159 19.1757 20.7214 18.6013 20.717C16.5896 20.7335 14.1179 20.5761 12.2063 19.8828C12.1711 19.8696 12.1425 19.9136 12.1679 19.9411C12.5079 20.2999 12.8744 20.6344 13.2639 20.9415C14.9697 22.2818 17.1211 23.0819 19.4618 23.0819C20.7956 23.0819 22.0689 22.8222 23.2299 22.3512C23.9628 22.0551 24.6528 21.6744 25.2856 21.2232C23.9859 20.9602 22.7049 20.7103 21.3723 20.7103Z" fill="#515151"/>
<path d="M18.4439 19.2321C22.0403 19.2321 24.2919 17.3536 25.2658 15.004C25.6345 14.1126 25.8237 13.1574 25.838 12.2088C25.8513 11.2602 25.6906 10.3204 25.356 9.46532C24.8124 8.0699 23.7967 6.89678 22.3231 6.28271C22.7633 6.89678 23.0781 7.57139 23.2739 8.27019C23.5931 9.40919 23.5975 10.612 23.319 11.7279C23.0384 12.8526 22.4717 13.8948 21.654 14.7014C20.6592 15.6819 19.3023 16.3103 17.6461 16.3158C15.192 16.3246 12.6829 16.3323 10.2255 16.3323C10.1198 16.3323 10.0495 16.4446 10.0979 16.5381C11.3645 19.0131 15.8259 19.2046 18.445 19.2321H18.4439Z" fill="#515151"/>
<path d="M30.9849 20.6287L28.4813 17.5077L28.5319 17.3878C31.7288 10.8333 26.8614 2.97585 19.4969 3.00006C12.5936 3.11451 10.2947 8.84141 10.0042 9.65247C9.9877 9.69869 10.0218 9.74711 10.0713 9.74711C11.9388 9.74711 15.6728 9.94189 15.9974 7.53184C16.3144 9.94519 20.0571 9.75261 21.9246 9.75151C21.9741 9.75151 22.0083 9.70199 21.9918 9.65577C21.2754 7.6562 19.9306 5.92734 18.172 4.73442C22.7841 3.99269 27.1002 7.57916 27.3159 12.1429C27.3159 12.1616 27.3159 12.1803 27.3159 12.199C27.4777 15.1835 25.9117 17.9424 23.5159 19.3928L30.9156 20.7464C30.9805 20.7585 31.0256 20.6826 30.9838 20.632L30.9849 20.6287Z" fill="#515151"/>
</svg>
