<svg width="20" height="25" viewBox="0 0 20 25" fill="none" xmlns="http://www.w3.org/2000/svg">
<path d="M17.697 9.47984C15.3325 6.52421 12.9369 3.63079 10.5412 0.706269C10.3235 0.426262 10.1368 0.426264 9.88789 0.737383C7.55449 3.59968 5.2211 6.43087 2.91881 9.29317C1.17654 11.4399 0.554305 13.8977 0.95876 16.6045C1.73656 21.6446 6.43447 25.098 11.5057 24.4136C16.1725 23.7913 19.6259 19.8401 19.6259 14.7378C19.5948 13.0577 19.0037 11.1288 17.697 9.47984ZM13.4347 21.4268C10.7279 22.8269 6.80781 22.3913 4.47441 19.2801C2.51436 16.6667 2.38991 12.7155 5.25221 9.75985C5.31444 9.85319 5.31443 9.94652 5.31443 10.071C5.65667 11.9688 6.71447 13.3688 8.17673 14.52C8.73675 14.9555 9.35899 15.3289 9.98123 15.6711C11.0079 16.2934 11.9102 17.0089 12.6257 17.9734C13.3102 19.0312 13.5591 20.1824 13.4347 21.4268ZM15.9236 19.3734C15.8614 19.4668 15.8303 19.529 15.7369 19.5912C15.6125 18.8134 15.3636 18.0979 14.9903 17.4134C14.2125 16.0445 13.0924 14.9867 11.7857 14.1155C11.2879 13.7733 10.759 13.4933 10.2301 13.1511C9.42121 12.6222 8.70564 11.9999 8.20785 11.191C7.46116 9.94652 7.43005 8.63982 7.8345 7.30201C8.0834 6.4931 8.45674 5.77752 8.98565 5.15528C9.26565 4.81305 9.54566 4.47082 9.82567 4.12859C10.0746 3.81747 10.3857 3.81747 10.6346 4.12859C12.3768 6.27531 14.1502 8.39093 15.8614 10.5377C17.9459 13.1199 17.9459 16.76 15.9236 19.3734Z" fill="#C8A5E7"/>
</svg>
