<svg width="282" height="282" viewBox="0 0 282 282" fill="none" xmlns="http://www.w3.org/2000/svg">
<path d="M155.334 207.742H13C6.09644 207.742 0.5 202.146 0.5 195.242V191.307V102.502C0.5 95.5982 6.09644 90.0018 13 90.0018H82.5432C86.6817 90.0018 90.7168 88.7102 94.0845 86.3074L103.346 79.6999C106.168 77.6867 109.483 76.4948 112.924 76.2422H268.5C275.404 76.2422 281 81.8386 281 88.7422V112.665V181.432C281 188.335 275.404 193.932 268.5 193.932H186.475C182.096 193.932 177.84 195.378 174.368 198.045L166.831 203.836C163.535 206.369 159.493 207.742 155.334 207.742Z" stroke="#7D5BA8"/>
</svg>
