<svg width="222" height="221" viewBox="0 0 222 221" fill="none" xmlns="http://www.w3.org/2000/svg">
<path d="M95.3336 194.5H13C6.09644 194.5 0.5 188.904 0.5 182V178.065V69.2596C0.5 62.356 6.09644 56.7596 13 56.7596H32.5432C36.6817 56.7596 40.7168 55.468 44.0845 53.0652L53.3459 46.4577C56.1676 44.4445 59.4828 43.2527 62.9236 43H208.5C215.404 43 221 48.5964 221 55.5V79.4224V168.19C221 175.093 215.404 180.69 208.5 180.69H126.475C122.096 180.69 117.84 182.136 114.368 184.803L106.831 190.594C103.535 193.127 99.4925 194.5 95.3336 194.5Z" stroke="#7D5BA8"/>
</svg>
