<svg width="158" height="158" viewBox="0 0 158 158" fill="none" xmlns="http://www.w3.org/2000/svg">
<mask id="mask0_311_107584" style="mask-type:alpha" maskUnits="userSpaceOnUse" x="0" y="30" width="158" height="98">
<path d="M0.5 115V51.6577C0.5 44.7541 6.09644 39.1577 13 39.1577H25.3233C27.9745 39.1577 30.5597 38.3332 32.7175 36.7992L38.5656 32.6416C40.318 31.3958 42.3768 30.6576 44.5139 30.5H145C151.904 30.5 157.5 36.0965 157.5 43V106.31C157.5 113.214 151.904 118.81 145 118.81H70.4525C67.6471 118.81 64.9201 119.733 62.696 121.436L57.9365 125.08C55.8873 126.649 53.374 127.5 50.788 127.5H13C6.09644 127.5 0.5 121.904 0.5 115Z" fill="#050505" stroke="#7D5BA8"/>
</mask>
<g mask="url(#mask0_311_107584)">
<path d="M0.5 115V71.6577C0.5 64.7541 6.09645 59.1577 13 59.1577H55.3233C57.9745 59.1577 60.5597 58.3332 62.7175 56.7992L68.5656 52.6416C70.318 51.3958 72.3768 50.6576 74.5139 50.5H145C151.904 50.5 157.5 56.0964 157.5 63V106.31C157.5 113.214 151.904 118.81 145 118.81H70.4525C67.6471 118.81 64.9201 119.733 62.696 121.436L57.9365 125.08C55.8873 126.649 53.374 127.5 50.788 127.5H13C6.09644 127.5 0.5 121.904 0.5 115Z" stroke="#7D5BA8"/>
</g>
</svg>
