<svg width="98" height="98" viewBox="0 0 98 98" fill="none" xmlns="http://www.w3.org/2000/svg">
<g clip-path="url(#clip0_310_107512)">
<mask id="mask0_310_107512" style="mask-type:alpha" maskUnits="userSpaceOnUse" x="0" y="0" width="98" height="98">
<path d="M0.5 85V21.6577C0.5 14.7541 6.09644 9.1577 13 9.1577H25.3233C27.9745 9.1577 30.5597 8.33323 32.7175 6.7992L38.5656 2.64163C40.318 1.39579 42.3768 0.657587 44.5139 0.5H85C91.9036 0.5 97.5 6.09645 97.5 13V76.3104C97.5 83.214 91.9035 88.8104 85 88.8104H70.4525C67.6471 88.8104 64.9201 89.7334 62.696 91.4362L57.9365 95.0802C55.8873 96.6491 53.374 97.5 50.788 97.5H13C6.09644 97.5 0.5 91.9036 0.5 85Z" fill="#050505" stroke="#7D5BA8"/>
</mask>
<g mask="url(#mask0_310_107512)">
<path d="M0.5 85V21.6577C0.5 14.7541 6.09644 9.1577 13 9.1577H25.3233C27.9745 9.1577 30.5597 8.33323 32.7175 6.7992L38.5656 2.64163C40.318 1.39579 42.3768 0.657587 44.5139 0.5H85C91.9036 0.5 97.5 6.09645 97.5 13V76.3104C97.5 83.214 91.9035 88.8104 85 88.8104H70.4525C67.6471 88.8104 64.9201 89.7334 62.696 91.4362L57.9365 95.0802C55.8873 96.6491 53.374 97.5 50.788 97.5H13C6.09644 97.5 0.5 91.9036 0.5 85Z" stroke="#7D5BA8"/>
</g>
</g>
<defs>
<clipPath id="clip0_310_107512">
<rect width="98" height="98" fill="white"/>
</clipPath>
</defs>
</svg>
