<svg width="138" height="138" viewBox="0 0 138 138" fill="none" xmlns="http://www.w3.org/2000/svg">
<g clip-path="url(#clip0_70_53305)">
<mask id="mask0_70_53305" style="mask-type:alpha" maskUnits="userSpaceOnUse" x="20" y="20" width="98" height="98">
<path d="M20.5 105V41.6577C20.5 34.7541 26.0964 29.1577 33 29.1577H45.3233C47.9745 29.1577 50.5597 28.3332 52.7175 26.7992L58.5656 22.6416C60.318 21.3958 62.3768 20.6576 64.5139 20.5H105C111.904 20.5 117.5 26.0965 117.5 33V96.3104C117.5 103.214 111.904 108.81 105 108.81H90.4525C87.6471 108.81 84.9201 109.733 82.696 111.436L77.9365 115.08C75.8873 116.649 73.374 117.5 70.788 117.5H33C26.0964 117.5 20.5 111.904 20.5 105Z" fill="#050505" stroke="#7D5BA8"/>
</mask>
<g mask="url(#mask0_70_53305)">
<path d="M20.5 105V41.6577C20.5 34.7541 26.0964 29.1577 33 29.1577H45.3233C47.9745 29.1577 50.5597 28.3332 52.7175 26.7992L58.5656 22.6416C60.318 21.3958 62.3768 20.6576 64.5139 20.5H105C111.904 20.5 117.5 26.0965 117.5 33V96.3104C117.5 103.214 111.904 108.81 105 108.81H90.4525C87.6471 108.81 84.9201 109.733 82.696 111.436L77.9365 115.08C75.8873 116.649 73.374 117.5 70.788 117.5H33C26.0964 117.5 20.5 111.904 20.5 105Z" fill="#050505" stroke="#7D5BA8"/>
<g filter="url(#filter0_b_70_53305)">
<path d="M97.375 43H39.9585C36.3052 43 33.3334 45.9718 33.3334 49.625V89.375C33.3334 93.0282 36.3052 96 39.9585 96H97.375C101.028 96 104 93.0282 104 89.375V49.625C104 45.9718 101.028 43 97.375 43ZM93.4124 48.4166C95.716 48.4166 97.5834 50.284 97.5834 52.5876V52.5876L68.6667 66.2028L39.7501 52.5876V52.5876C39.7501 50.284 41.6175 48.4166 43.921 48.4166H93.4124ZM95.375 89.7082H41.9585C40.74 89.7082 39.7501 88.7184 39.7501 87.4999V60.5L67.2196 74.0403C67.6359 74.4004 68.1513 74.5794 68.6667 74.5794C69.1821 74.5794 69.6975 74.4005 70.1138 74.0403L97.5834 60.5V87.5C97.5832 88.7184 96.5934 89.7082 95.375 89.7082Z" fill="url(#paint0_angular_70_53305)" fill-opacity="0.5"/>
<path d="M68.4985 66.5602L68.6667 66.6394L68.835 66.5602L97.7516 52.945L97.5834 52.5876H97.9784C97.9784 50.0659 95.9341 48.0216 93.4124 48.0216H43.921C41.3993 48.0216 39.3551 50.0659 39.3551 52.5876H39.7501L39.5818 52.945L68.4985 66.5602ZM39.9247 60.1457L39.3551 59.8649V60.5V87.4999C39.3551 88.9366 40.5219 90.1032 41.9585 90.1032H95.375C96.8116 90.1032 97.9782 88.9366 97.9784 87.5V60.5V59.8649L97.4087 60.1457L69.9392 73.686L69.8937 73.7084L69.8553 73.7416C69.5133 74.0376 69.0905 74.1844 68.6667 74.1844C68.243 74.1844 67.8201 74.0374 67.478 73.7415L67.4397 73.7084L67.3943 73.686L39.9247 60.1457ZM39.9585 43.395H97.375C100.81 43.395 103.605 46.1899 103.605 49.625V89.375C103.605 92.8101 100.81 95.605 97.375 95.605H39.9585C36.5234 95.605 33.7284 92.8101 33.7284 89.375V49.625C33.7284 46.1899 36.5234 43.395 39.9585 43.395Z" stroke="url(#paint1_angular_70_53305)" stroke-width="0.79"/>
</g>
</g>
</g>
<path opacity="0.9" d="M15.25 105V41.6577C15.25 31.8546 23.1969 23.9077 33 23.9077H45.3233C47.9227 23.9077 50.4572 23.0993 52.5726 21.5954L58.4207 17.4379C60.213 16.1637 62.319 15.4095 64.5047 15.25H105C114.803 15.25 122.75 23.197 122.75 33V96.3104C122.75 106.113 114.803 114.06 105 114.06H90.4525C87.7019 114.06 85.0284 114.965 82.848 116.635L78.0885 120.279C75.9955 121.881 73.4288 122.75 70.788 122.75H33C23.1969 122.75 15.25 114.803 15.25 105Z" stroke="#7D5BA8" stroke-width="0.5"/>
<path opacity="0.7" d="M10.25 105V41.6577C10.25 29.0932 20.4355 18.9077 33 18.9077H45.3233C47.9227 18.9077 50.4572 18.0993 52.5726 16.5954L58.4207 12.4379C60.213 11.1637 62.319 10.4095 64.5047 10.25H105C117.564 10.25 127.75 20.4355 127.75 33V96.3104C127.75 108.875 117.564 119.06 105 119.06H90.4525C87.7019 119.06 85.0284 119.965 82.848 121.635L78.0885 125.279C75.9955 126.881 73.4288 127.75 70.788 127.75H33C20.4355 127.75 10.25 117.564 10.25 105Z" stroke="#7D5BA8" stroke-width="0.5"/>
<path opacity="0.5" d="M5.25 105V41.6577C5.25 26.3318 17.6741 13.9077 33 13.9077H45.3233C47.9227 13.9077 50.4572 13.0993 52.5726 11.5954L58.4207 7.43787C60.213 6.16368 62.319 5.40948 64.5047 5.25H105C120.326 5.25 132.75 17.6741 132.75 33V96.3104C132.75 111.636 120.326 124.06 105 124.06H90.4525C87.7019 124.06 85.0284 124.965 82.848 126.635L78.0885 130.279C75.9955 131.881 73.4288 132.75 70.788 132.75H33C17.6741 132.75 5.25 120.326 5.25 105Z" stroke="#7D5BA8" stroke-width="0.5"/>
<path opacity="0.3" d="M0.25 105V41.6577C0.25 23.5704 14.9127 8.9077 33 8.9077H45.3233C47.9227 8.9077 50.4572 8.09934 52.5726 6.59545L58.4207 2.43787C60.213 1.16368 62.319 0.409483 64.5047 0.25H105C123.087 0.25 137.75 14.9127 137.75 33V96.3104C137.75 114.398 123.087 129.06 105 129.06H90.4525C87.7019 129.06 85.0284 129.965 82.848 131.635L78.0885 135.279C75.9955 136.881 73.4288 137.75 70.788 137.75H33C14.9127 137.75 0.25 123.087 0.25 105Z" stroke="#7D5BA8" stroke-width="0.5"/>
<defs>
<filter id="filter0_b_70_53305" x="26.2746" y="35.9412" width="84.7842" height="67.1176" filterUnits="userSpaceOnUse" color-interpolation-filters="sRGB">
<feFlood flood-opacity="0" result="BackgroundImageFix"/>
<feGaussianBlur in="BackgroundImageFix" stdDeviation="3.52941"/>
<feComposite in2="SourceAlpha" operator="in" result="effect1_backgroundBlur_70_53305"/>
<feBlend mode="normal" in="SourceGraphic" in2="effect1_backgroundBlur_70_53305" result="shape"/>
</filter>
<radialGradient id="paint0_angular_70_53305" cx="0" cy="0" r="1" gradientUnits="userSpaceOnUse" gradientTransform="translate(68.6667 19.2605) rotate(89.3021) scale(316.994 134.482)">
<stop offset="0.0472823" stop-color="#C8A5E7"/>
<stop offset="0.209313" stop-color="white"/>
<stop offset="0.388494" stop-color="#AF9CFD"/>
<stop offset="0.474016" stop-color="white" stop-opacity="0.501806"/>
<stop offset="0.575015" stop-color="#A291DA" stop-opacity="0.61"/>
<stop offset="0.729849" stop-color="#E5E7FC"/>
<stop offset="0.837991" stop-color="#A291DA" stop-opacity="0.757761"/>
</radialGradient>
<radialGradient id="paint1_angular_70_53305" cx="0" cy="0" r="1" gradientUnits="userSpaceOnUse" gradientTransform="translate(68.6667 69.5) rotate(89.2125) scale(34.2766 45.6983)">
<stop offset="0.0472823" stop-color="#C8A5E7"/>
<stop offset="0.209313" stop-color="white"/>
<stop offset="0.388494" stop-color="#AF9CFD"/>
<stop offset="0.474016" stop-color="white" stop-opacity="0.501806"/>
<stop offset="0.575015" stop-color="#A291DA" stop-opacity="0.61"/>
<stop offset="0.729849" stop-color="#E5E7FC"/>
<stop offset="0.837991" stop-color="#A291DA" stop-opacity="0.757761"/>
</radialGradient>
<clipPath id="clip0_70_53305">
<rect width="98" height="98" fill="white" transform="translate(20 20)"/>
</clipPath>
</defs>
</svg>
