<svg width="332" height="237" viewBox="0 0 332 237" fill="none" xmlns="http://www.w3.org/2000/svg">
<mask id="mask0_2902_59123" style="mask-type:alpha" maskUnits="userSpaceOnUse" x="0" y="0" width="332" height="237">
<path d="M205.834 236.259H13.5002C6.59668 236.259 1.00024 230.663 1.00024 223.759V219.824L1.00002 26.7596C1.00001 19.856 6.59645 14.2596 13.5 14.2596H133.043C137.182 14.2596 141.217 12.968 144.585 10.5652L153.846 3.95768C156.668 1.9445 159.983 0.752659 163.424 0.5H319C325.904 0.5 331.5 6.09643 331.5 13V36.9224L331.5 209.949C331.5 216.853 325.904 222.449 319 222.449H236.975C232.596 222.449 228.34 223.895 224.869 226.562L217.331 232.353C214.035 234.886 209.993 236.259 205.834 236.259Z" fill="#050505" stroke="#515151"/>
</mask>
<g mask="url(#mask0_2902_59123)">
<path d="M205.834 236.259H13.5002C6.59668 236.259 1.00024 230.663 1.00024 223.759V219.824L1.00002 26.7596C1.00001 19.856 6.59645 14.2596 13.5 14.2596H133.043C137.182 14.2596 141.217 12.968 144.585 10.5652L153.846 3.95768C156.668 1.9445 159.983 0.752659 163.424 0.5H319C325.904 0.5 331.5 6.09643 331.5 13V36.9224L331.5 209.949C331.5 216.853 325.904 222.449 319 222.449H236.975C232.596 222.449 228.34 223.895 224.869 226.562L217.331 232.353C214.035 234.886 209.993 236.259 205.834 236.259Z" fill="#050505" fill-opacity="0.6" stroke="#515151"/>
<path d="M20.486 39V29.208C20.486 28.7547 20.5937 28.3467 20.809 27.984C21.0357 27.61 21.3303 27.3153 21.693 27.1C22.067 26.8733 22.4807 26.76 22.934 26.76H30.261C30.7143 26.76 31.1223 26.8733 31.485 27.1C31.859 27.3153 32.1593 27.61 32.386 27.984C32.6127 28.3467 32.726 28.7547 32.726 29.208V39H30.244V34.971H22.934V39H20.486ZM22.934 32.523H30.244V29.327C30.244 29.293 30.2327 29.2703 30.21 29.259C30.1987 29.2363 30.176 29.225 30.142 29.225H23.036C23.002 29.225 22.9737 29.2363 22.951 29.259C22.9397 29.2703 22.934 29.293 22.934 29.327V32.523ZM34.3229 39V26.76H36.7539V39H34.3229ZM46.058 39C45.616 39 45.208 38.8923 44.834 38.677C44.46 38.4503 44.1653 38.1557 43.95 37.793C43.7347 37.419 43.627 37.0053 43.627 36.552V35.515H46.075V36.433C46.075 36.467 46.0807 36.4953 46.092 36.518C46.1147 36.5293 46.1373 36.535 46.16 36.535H53.283C53.3057 36.535 53.3283 36.5293 53.351 36.518C53.3737 36.4953 53.385 36.467 53.385 36.433V34.206C53.385 34.1833 53.3737 34.1663 53.351 34.155C53.3283 34.1323 53.3057 34.121 53.283 34.121H46.058C45.616 34.121 45.208 34.0133 44.834 33.798C44.46 33.5713 44.1653 33.271 43.95 32.897C43.7347 32.523 43.627 32.115 43.627 31.673V29.208C43.627 28.7547 43.7347 28.3467 43.95 27.984C44.1653 27.61 44.46 27.3153 44.834 27.1C45.208 26.8733 45.616 26.76 46.058 26.76H53.419C53.861 26.76 54.2633 26.8733 54.626 27.1C55 27.3153 55.3003 27.61 55.527 27.984C55.7537 28.3467 55.867 28.7547 55.867 29.208V30.245H53.385V29.327C53.385 29.293 53.3737 29.2703 53.351 29.259C53.3283 29.2363 53.3057 29.225 53.283 29.225H46.16C46.1373 29.225 46.1147 29.2363 46.092 29.259C46.0807 29.2703 46.075 29.293 46.075 29.327V31.554C46.075 31.5767 46.0807 31.5993 46.092 31.622C46.1147 31.6333 46.1373 31.639 46.16 31.639H53.419C53.861 31.639 54.2633 31.7523 54.626 31.979C55 32.1943 55.3003 32.489 55.527 32.863C55.7537 33.237 55.867 33.645 55.867 34.087V36.552C55.867 37.0053 55.7537 37.419 55.527 37.793C55.3003 38.1557 55 38.4503 54.626 38.677C54.2633 38.8923 53.861 39 53.419 39H46.058ZM57.7565 39V26.76H69.0445V29.225H60.2385V31.639H67.3275V34.121H60.2385V36.535H69.0445V39H57.7565ZM80.3601 39L76.7391 34.682H79.9521L82.9441 38.235V39H80.3601ZM70.7381 39V26.777H80.5131C80.9665 26.777 81.3745 26.8903 81.7371 27.117C82.1111 27.3323 82.4115 27.627 82.6381 28.001C82.8648 28.375 82.9781 28.783 82.9781 29.225V32.455C82.9781 32.897 82.8648 33.305 82.6381 33.679C82.4115 34.0417 82.1111 34.3363 81.7371 34.563C81.3745 34.7783 80.9665 34.886 80.5131 34.886L73.1861 34.903V39H70.7381ZM73.2881 32.421H80.3941C80.4281 32.421 80.4508 32.4153 80.4621 32.404C80.4848 32.3813 80.4961 32.3587 80.4961 32.336V29.327C80.4961 29.293 80.4848 29.2703 80.4621 29.259C80.4508 29.2363 80.4281 29.225 80.3941 29.225H73.2881C73.2541 29.225 73.2258 29.2363 73.2031 29.259C73.1918 29.2703 73.1861 29.293 73.1861 29.327V32.336C73.1861 32.3587 73.1918 32.3813 73.2031 32.404C73.2258 32.4153 73.2541 32.421 73.2881 32.421ZM90.9838 39L83.8948 26.76H86.7338L92.0378 35.957L97.3418 26.76H100.181L93.0918 39H90.9838ZM100.962 39V26.76H103.393V39H100.962ZM104.937 39V26.76H107.538L114.695 35.294V26.76H117.177V39H114.576L107.385 30.432V39H104.937ZM121.53 39C121.077 39 120.663 38.8923 120.289 38.677C119.926 38.4503 119.632 38.1557 119.405 37.793C119.19 37.419 119.082 37.0053 119.082 36.552V29.208C119.082 28.7547 119.19 28.3467 119.405 27.984C119.632 27.61 119.926 27.3153 120.289 27.1C120.663 26.8733 121.077 26.76 121.53 26.76H128.857C129.31 26.76 129.718 26.8733 130.081 27.1C130.455 27.3153 130.755 27.61 130.982 27.984C131.209 28.3467 131.322 28.7547 131.322 29.208V30.262H128.84V29.327C128.84 29.293 128.829 29.2703 128.806 29.259C128.795 29.2363 128.772 29.225 128.738 29.225H121.632C121.598 29.225 121.57 29.2363 121.547 29.259C121.536 29.2703 121.53 29.293 121.53 29.327V36.433C121.53 36.467 121.536 36.4953 121.547 36.518C121.57 36.5293 121.598 36.535 121.632 36.535H128.738C128.772 36.535 128.795 36.5293 128.806 36.518C128.829 36.4953 128.84 36.467 128.84 36.433V34.427H126.137V31.962H131.322V36.552C131.322 37.0053 131.209 37.419 130.982 37.793C130.755 38.1557 130.455 38.4503 130.081 38.677C129.718 38.8923 129.31 39 128.857 39H121.53ZM143.214 39V34.427L137.553 26.76H140.46L144.438 31.758L148.399 26.76H151.34L145.679 34.444V39H143.214ZM154.666 39C154.212 39 153.799 38.8923 153.425 38.677C153.062 38.4503 152.767 38.1557 152.541 37.793C152.325 37.419 152.218 37.0053 152.218 36.552V29.208C152.218 28.7547 152.325 28.3467 152.541 27.984C152.767 27.61 153.062 27.3153 153.425 27.1C153.799 26.8733 154.212 26.76 154.666 26.76H162.01C162.452 26.76 162.854 26.8733 163.217 27.1C163.591 27.3153 163.891 27.61 164.118 27.984C164.344 28.3467 164.458 28.7547 164.458 29.208V36.552C164.458 37.0053 164.344 37.419 164.118 37.793C163.891 38.1557 163.591 38.4503 163.217 38.677C162.854 38.8923 162.452 39 162.01 39H154.666ZM154.768 36.535H161.874C161.908 36.535 161.93 36.5293 161.942 36.518C161.964 36.4953 161.976 36.467 161.976 36.433V29.327C161.976 29.293 161.964 29.2703 161.942 29.259C161.93 29.2363 161.908 29.225 161.874 29.225H154.768C154.734 29.225 154.705 29.2363 154.683 29.259C154.671 29.2703 154.666 29.293 154.666 29.327V36.433C154.666 36.467 154.671 36.4953 154.683 36.518C154.705 36.5293 154.734 36.535 154.768 36.535ZM168.744 39C168.291 39 167.877 38.8923 167.503 38.677C167.14 38.4503 166.846 38.1557 166.619 37.793C166.404 37.419 166.296 37.0053 166.296 36.552V26.76H168.744V36.433C168.744 36.467 168.75 36.4953 168.761 36.518C168.784 36.5293 168.812 36.535 168.846 36.535H175.952C175.986 36.535 176.009 36.5293 176.02 36.518C176.043 36.4953 176.054 36.467 176.054 36.433V26.76H178.536V36.552C178.536 37.0053 178.423 37.419 178.196 37.793C177.969 38.1557 177.669 38.4503 177.295 38.677C176.932 38.8923 176.53 39 176.088 39H168.744ZM190.03 39L186.409 34.682H189.622L192.614 38.235V39H190.03ZM180.408 39V26.777H190.183C190.636 26.777 191.044 26.8903 191.407 27.117C191.781 27.3323 192.081 27.627 192.308 28.001C192.535 28.375 192.648 28.783 192.648 29.225V32.455C192.648 32.897 192.535 33.305 192.308 33.679C192.081 34.0417 191.781 34.3363 191.407 34.563C191.044 34.7783 190.636 34.886 190.183 34.886L182.856 34.903V39H180.408ZM182.958 32.421H190.064C190.098 32.421 190.121 32.4153 190.132 32.404C190.155 32.3813 190.166 32.3587 190.166 32.336V29.327C190.166 29.293 190.155 29.2703 190.132 29.259C190.121 29.2363 190.098 29.225 190.064 29.225H182.958C182.924 29.225 182.896 29.2363 182.873 29.259C182.862 29.2703 182.856 29.293 182.856 29.327V32.336C182.856 32.3587 182.862 32.3813 182.873 32.404C182.896 32.4153 182.924 32.421 182.958 32.421ZM203.896 39L199.442 26.76H202.043L204.848 34.427L207.653 26.76H209.965L212.787 34.427L215.592 26.76H218.193L213.739 39H211.835L208.809 30.738L205.8 39H203.896ZM219.09 39V29.208C219.09 28.7547 219.198 28.3467 219.413 27.984C219.64 27.61 219.935 27.3153 220.297 27.1C220.671 26.8733 221.085 26.76 221.538 26.76H228.865C229.319 26.76 229.727 26.8733 230.089 27.1C230.463 27.3153 230.764 27.61 230.99 27.984C231.217 28.3467 231.33 28.7547 231.33 29.208V39H228.848V34.971H221.538V39H219.09ZM221.538 32.523H228.848V29.327C228.848 29.293 228.837 29.2703 228.814 29.259C228.803 29.2363 228.78 29.225 228.746 29.225H221.64C221.606 29.225 221.578 29.2363 221.555 29.259C221.544 29.2703 221.538 29.293 221.538 29.327V32.523ZM233.284 39V26.743H235.732V36.535H245.524V39H233.284ZM246.532 39V26.743H248.98V36.535H258.772V39H246.532ZM259.798 39V26.76H271.086V29.225H262.28V31.639H269.369V34.121H262.28V36.535H271.086V39H259.798ZM277.063 39V29.225H272.167V26.76H284.407V29.225H279.528V39H277.063ZM20.503 59V46.76H29.819C30.261 46.76 30.6633 46.8733 31.026 47.1C31.4 47.3153 31.7003 47.61 31.927 47.984C32.1537 48.3467 32.267 48.7547 32.267 49.208V51.554C32.267 51.7013 32.2557 51.843 32.233 51.979C32.2103 52.1037 32.1763 52.2283 32.131 52.353C32.3123 52.591 32.4597 52.8517 32.573 53.135C32.6863 53.407 32.743 53.6847 32.743 53.968V56.552C32.743 57.0053 32.6297 57.419 32.403 57.793C32.1763 58.1557 31.876 58.4503 31.502 58.677C31.1393 58.8923 30.7313 59 30.278 59H20.503ZM23.053 56.535H30.159C30.193 56.535 30.2157 56.5293 30.227 56.518C30.2497 56.4953 30.261 56.467 30.261 56.433V54.104C30.261 54.0813 30.2497 54.0587 30.227 54.036C30.2157 54.0133 30.193 54.002 30.159 54.002H23.053C23.019 54.002 22.9907 54.0133 22.968 54.036C22.9567 54.0587 22.951 54.0813 22.951 54.104V56.433C22.951 56.467 22.9567 56.4953 22.968 56.518C22.9907 56.5293 23.019 56.535 23.053 56.535ZM23.053 51.537H29.683C29.7057 51.537 29.7283 51.5313 29.751 51.52C29.7737 51.4973 29.785 51.4747 29.785 51.452V49.327C29.785 49.293 29.7737 49.2703 29.751 49.259C29.7283 49.2363 29.7057 49.225 29.683 49.225H23.053C23.019 49.225 22.9907 49.2363 22.968 49.259C22.9567 49.2703 22.951 49.293 22.951 49.327V51.452C22.951 51.4747 22.9567 51.4973 22.968 51.52C22.9907 51.5313 23.019 51.537 23.053 51.537ZM34.6305 59V49.208C34.6305 48.7547 34.7382 48.3467 34.9535 47.984C35.1802 47.61 35.4749 47.3153 35.8375 47.1C36.2115 46.8733 36.6252 46.76 37.0785 46.76H44.4055C44.8589 46.76 45.2669 46.8733 45.6295 47.1C46.0035 47.3153 46.3039 47.61 46.5305 47.984C46.7572 48.3467 46.8705 48.7547 46.8705 49.208V59H44.3885V54.971H37.0785V59H34.6305ZM37.0785 52.523H44.3885V49.327C44.3885 49.293 44.3772 49.2703 44.3545 49.259C44.3432 49.2363 44.3205 49.225 44.2865 49.225H37.1805C37.1465 49.225 37.1182 49.2363 37.0955 49.259C37.0842 49.2703 37.0785 49.293 37.0785 49.327V52.523ZM51.2045 59C50.7625 59 50.3545 58.8923 49.9805 58.677C49.6065 58.4503 49.3118 58.1557 49.0965 57.793C48.8811 57.419 48.7735 57.0053 48.7735 56.552V55.515H51.2215V56.433C51.2215 56.467 51.2271 56.4953 51.2385 56.518C51.2611 56.5293 51.2838 56.535 51.3065 56.535H58.4295C58.4521 56.535 58.4748 56.5293 58.4975 56.518C58.5201 56.4953 58.5315 56.467 58.5315 56.433V54.206C58.5315 54.1833 58.5201 54.1663 58.4975 54.155C58.4748 54.1323 58.4521 54.121 58.4295 54.121H51.2045C50.7625 54.121 50.3545 54.0133 49.9805 53.798C49.6065 53.5713 49.3118 53.271 49.0965 52.897C48.8811 52.523 48.7735 52.115 48.7735 51.673V49.208C48.7735 48.7547 48.8811 48.3467 49.0965 47.984C49.3118 47.61 49.6065 47.3153 49.9805 47.1C50.3545 46.8733 50.7625 46.76 51.2045 46.76H58.5655C59.0075 46.76 59.4098 46.8733 59.7725 47.1C60.1465 47.3153 60.4468 47.61 60.6735 47.984C60.9001 48.3467 61.0135 48.7547 61.0135 49.208V50.245H58.5315V49.327C58.5315 49.293 58.5201 49.2703 58.4975 49.259C58.4748 49.2363 58.4521 49.225 58.4295 49.225H51.3065C51.2838 49.225 51.2611 49.2363 51.2385 49.259C51.2271 49.2703 51.2215 49.293 51.2215 49.327V51.554C51.2215 51.5767 51.2271 51.5993 51.2385 51.622C51.2611 51.6333 51.2838 51.639 51.3065 51.639H58.5655C59.0075 51.639 59.4098 51.7523 59.7725 51.979C60.1465 52.1943 60.4468 52.489 60.6735 52.863C60.9001 53.237 61.0135 53.645 61.0135 54.087V56.552C61.0135 57.0053 60.9001 57.419 60.6735 57.793C60.4468 58.1557 60.1465 58.4503 59.7725 58.677C59.4098 58.8923 59.0075 59 58.5655 59H51.2045ZM62.903 59V46.76H74.191V49.225H65.385V51.639H72.474V54.121H65.385V56.535H74.191V59H62.903ZM75.9186 59V46.76H85.6936C86.147 46.76 86.555 46.8733 86.9176 47.1C87.2916 47.3153 87.592 47.61 87.8186 47.984C88.0453 48.3467 88.1586 48.7547 88.1586 49.208V56.552C88.1586 57.0053 88.0453 57.419 87.8186 57.793C87.592 58.1557 87.2916 58.4503 86.9176 58.677C86.555 58.8923 86.147 59 85.6936 59H75.9186ZM78.4516 56.535H85.5746C85.6086 56.535 85.6313 56.5293 85.6426 56.518C85.6653 56.4953 85.6766 56.467 85.6766 56.433V49.327C85.6766 49.293 85.6653 49.2703 85.6426 49.259C85.6313 49.2363 85.6086 49.225 85.5746 49.225H78.4516C78.429 49.225 78.4063 49.2363 78.3836 49.259C78.361 49.2703 78.3496 49.293 78.3496 49.327V56.433C78.3496 56.467 78.361 56.4953 78.3836 56.518C78.4063 56.5293 78.429 56.535 78.4516 56.535ZM97.8387 59C97.3853 59 96.9717 58.8923 96.5977 58.677C96.235 58.4503 95.9403 58.1557 95.7137 57.793C95.4983 57.419 95.3907 57.0053 95.3907 56.552V49.208C95.3907 48.7547 95.4983 48.3467 95.7137 47.984C95.9403 47.61 96.235 47.3153 96.5977 47.1C96.9717 46.8733 97.3853 46.76 97.8387 46.76H105.183C105.625 46.76 106.027 46.8733 106.39 47.1C106.764 47.3153 107.064 47.61 107.291 47.984C107.517 48.3467 107.631 48.7547 107.631 49.208V56.552C107.631 57.0053 107.517 57.419 107.291 57.793C107.064 58.1557 106.764 58.4503 106.39 58.677C106.027 58.8923 105.625 59 105.183 59H97.8387ZM97.9407 56.535H105.047C105.081 56.535 105.103 56.5293 105.115 56.518C105.137 56.4953 105.149 56.467 105.149 56.433V49.327C105.149 49.293 105.137 49.2703 105.115 49.259C105.103 49.2363 105.081 49.225 105.047 49.225H97.9407C97.9067 49.225 97.8783 49.2363 97.8557 49.259C97.8443 49.2703 97.8387 49.293 97.8387 49.327V56.433C97.8387 56.467 97.8443 56.4953 97.8557 56.518C97.8783 56.5293 97.9067 56.535 97.9407 56.535ZM109.503 59V46.76H112.104L119.261 55.294V46.76H121.743V59H119.142L111.951 50.432V59H109.503ZM133.668 59V54.427L128.007 46.76H130.914L134.892 51.758L138.853 46.76H141.794L136.133 54.444V59H133.668ZM145.12 59C144.667 59 144.253 58.8923 143.879 58.677C143.516 58.4503 143.222 58.1557 142.995 57.793C142.78 57.419 142.672 57.0053 142.672 56.552V49.208C142.672 48.7547 142.78 48.3467 142.995 47.984C143.222 47.61 143.516 47.3153 143.879 47.1C144.253 46.8733 144.667 46.76 145.12 46.76H152.464C152.906 46.76 153.308 46.8733 153.671 47.1C154.045 47.3153 154.345 47.61 154.572 47.984C154.799 48.3467 154.912 48.7547 154.912 49.208V56.552C154.912 57.0053 154.799 57.419 154.572 57.793C154.345 58.1557 154.045 58.4503 153.671 58.677C153.308 58.8923 152.906 59 152.464 59H145.12ZM145.222 56.535H152.328C152.362 56.535 152.385 56.5293 152.396 56.518C152.419 56.4953 152.43 56.467 152.43 56.433V49.327C152.43 49.293 152.419 49.2703 152.396 49.259C152.385 49.2363 152.362 49.225 152.328 49.225H145.222C145.188 49.225 145.16 49.2363 145.137 49.259C145.126 49.2703 145.12 49.293 145.12 49.327V56.433C145.12 56.467 145.126 56.4953 145.137 56.518C145.16 56.5293 145.188 56.535 145.222 56.535ZM159.198 59C158.745 59 158.331 58.8923 157.957 58.677C157.594 58.4503 157.3 58.1557 157.073 57.793C156.858 57.419 156.75 57.0053 156.75 56.552V46.76H159.198V56.433C159.198 56.467 159.204 56.4953 159.215 56.518C159.238 56.5293 159.266 56.535 159.3 56.535H166.406C166.44 56.535 166.463 56.5293 166.474 56.518C166.497 56.4953 166.508 56.467 166.508 56.433V46.76H168.99V56.552C168.99 57.0053 168.877 57.419 168.65 57.793C168.423 58.1557 168.123 58.4503 167.749 58.677C167.386 58.8923 166.984 59 166.542 59H159.198ZM180.484 59L176.863 54.682H180.076L183.068 58.235V59H180.484ZM170.862 59V46.777H180.637C181.09 46.777 181.498 46.8903 181.861 47.117C182.235 47.3323 182.535 47.627 182.762 48.001C182.989 48.375 183.102 48.783 183.102 49.225V52.455C183.102 52.897 182.989 53.305 182.762 53.679C182.535 54.0417 182.235 54.3363 181.861 54.563C181.498 54.7783 181.09 54.886 180.637 54.886L173.31 54.903V59H170.862ZM173.412 52.421H180.518C180.552 52.421 180.575 52.4153 180.586 52.404C180.609 52.3813 180.62 52.3587 180.62 52.336V49.327C180.62 49.293 180.609 49.2703 180.586 49.259C180.575 49.2363 180.552 49.225 180.518 49.225H173.412C173.378 49.225 173.35 49.2363 173.327 49.259C173.316 49.2703 173.31 49.293 173.31 49.327V52.336C173.31 52.3587 173.316 52.3813 173.327 52.404C173.35 52.4153 173.378 52.421 173.412 52.421ZM190.253 59V46.777H200.028C200.481 46.777 200.889 46.8903 201.252 47.117C201.626 47.3323 201.926 47.627 202.153 48.001C202.379 48.375 202.493 48.783 202.493 49.225V52.455C202.493 52.897 202.379 53.305 202.153 53.679C201.926 54.0417 201.626 54.3363 201.252 54.563C200.889 54.7783 200.481 54.886 200.028 54.886L192.701 54.903V59H190.253ZM192.803 52.421H199.909C199.943 52.421 199.965 52.4153 199.977 52.404C199.999 52.3813 200.011 52.3587 200.011 52.336V49.327C200.011 49.293 199.999 49.2703 199.977 49.259C199.965 49.2363 199.943 49.225 199.909 49.225H192.803C192.769 49.225 192.74 49.2363 192.718 49.259C192.706 49.2703 192.701 49.293 192.701 49.327V52.336C192.701 52.3587 192.706 52.3813 192.718 52.404C192.74 52.4153 192.769 52.421 192.803 52.421ZM213.322 59L209.701 54.682H212.914L215.906 58.235V59H213.322ZM203.7 59V46.777H213.475C213.928 46.777 214.336 46.8903 214.699 47.117C215.073 47.3323 215.373 47.627 215.6 48.001C215.827 48.375 215.94 48.783 215.94 49.225V52.455C215.94 52.897 215.827 53.305 215.6 53.679C215.373 54.0417 215.073 54.3363 214.699 54.563C214.336 54.7783 213.928 54.886 213.475 54.886L206.148 54.903V59H203.7ZM206.25 52.421H213.356C213.39 52.421 213.413 52.4153 213.424 52.404C213.447 52.3813 213.458 52.3587 213.458 52.336V49.327C213.458 49.293 213.447 49.2703 213.424 49.259C213.413 49.2363 213.39 49.225 213.356 49.225H206.25C206.216 49.225 206.188 49.2363 206.165 49.259C206.154 49.2703 206.148 49.293 206.148 49.327V52.336C206.148 52.3587 206.154 52.3813 206.165 52.404C206.188 52.4153 206.216 52.421 206.25 52.421ZM220.142 59C219.689 59 219.275 58.8923 218.901 58.677C218.539 58.4503 218.244 58.1557 218.017 57.793C217.802 57.419 217.694 57.0053 217.694 56.552V49.208C217.694 48.7547 217.802 48.3467 218.017 47.984C218.244 47.61 218.539 47.3153 218.901 47.1C219.275 46.8733 219.689 46.76 220.142 46.76H227.486C227.928 46.76 228.331 46.8733 228.693 47.1C229.067 47.3153 229.368 47.61 229.594 47.984C229.821 48.3467 229.934 48.7547 229.934 49.208V56.552C229.934 57.0053 229.821 57.419 229.594 57.793C229.368 58.1557 229.067 58.4503 228.693 58.677C228.331 58.8923 227.928 59 227.486 59H220.142ZM220.244 56.535H227.35C227.384 56.535 227.407 56.5293 227.418 56.518C227.441 56.4953 227.452 56.467 227.452 56.433V49.327C227.452 49.293 227.441 49.2703 227.418 49.259C227.407 49.2363 227.384 49.225 227.35 49.225H220.244C220.21 49.225 220.182 49.2363 220.159 49.259C220.148 49.2703 220.142 49.293 220.142 49.327V56.433C220.142 56.467 220.148 56.4953 220.159 56.518C220.182 56.5293 220.21 56.535 220.244 56.535ZM231.84 59V46.76H243.128V49.225H234.322V51.639H241.411V54.121H234.322V59H231.84ZM243.752 59V46.76H246.183V59H243.752ZM247.744 59V46.743H250.192V56.535H259.984V59H247.744ZM261.009 59V46.76H272.297V49.225H263.491V51.639H270.58V54.121H263.491V56.535H272.297V59H261.009Z" fill="white"/>
</g>
</svg>
