<svg width="173" height="173" viewBox="0 0 173 173" fill="none" xmlns="http://www.w3.org/2000/svg">
<g clip-path="url(#clip0_474_8218)">
<path d="M52.4921 72.9822L85.9911 39.2545L119.508 73L139 53.3741L85.9911 0L33 53.3563L52.4921 72.9822Z" fill="white"/>
<path d="M38.799 86.799L19 67L-0.798991 86.799L19 106.598L38.799 86.799Z" fill="white"/>
<path d="M52.5137 100.016L86.0007 133.745L119.504 100L139 119.615L138.99 119.626L86.0007 173L33.0272 119.644L33 119.617L52.5137 100.016Z" fill="white"/>
<path d="M152.201 106.799L172 87L152.201 67.201L132.402 87L152.201 106.799Z" fill="white"/>
<path d="M105.982 86.9897H105.99L86 67L71.2268 81.7726H71.2255L69.5291 83.4703L66.0275 86.9718L66 86.9993L66.0275 87.0282L86 107L105.99 87.0103L106 86.9993L105.982 86.9897Z" fill="white"/>
</g>
<defs>
<clipPath id="clip0_474_8218">
<rect width="173" height="173" fill="white"/>
</clipPath>
</defs>
</svg>
