<svg width="1320" height="389" viewBox="0 0 1320 389" fill="none" xmlns="http://www.w3.org/2000/svg">
<path d="M28.9507 11V109.833L21.055 105.945V276.136L28.9507 272.211V371.044L0 358.121V286.467L14.6633 279.283V102.798L0 95.5768V23.9606L28.9507 11Z" fill="#AF9CFD" fill-opacity="0.6"/>
<path d="M32.8596 293.984V349.307L28.9494 347.567L16.6172 342.049V301.983L28.9494 295.91L32.8596 293.984Z" fill="#000402"/>
<path d="M32.8626 32.7734V88.0965L16.6953 80.098V40.0313L28.9523 34.5139L32.8626 32.7734Z" fill="#000402"/>
<path d="M1305.34 102.798V279.283L1320 286.467V358.121L1291.05 371.044V272.211L1298.94 276.136V105.945L1291.05 109.833V11L1320 23.9606V95.5768L1305.34 102.798Z" fill="#AF9CFD" fill-opacity="0.6"/>
<path d="M1303.38 301.983V342.049L1291.05 347.567L1287.14 349.307V293.984L1303.38 301.983Z" fill="#000402"/>
<path d="M1303.31 40.0313V80.098L1291.05 86.1339V86.1709L1287.14 88.0965V32.7734L1291.05 34.5139L1303.31 40.0313Z" fill="#000402"/>
<path d="M897 0L881 10H1093L1109 5H1264L1269 0H897Z" fill="#AF9CFD" fill-opacity="0.6"/>
<path d="M430 0L446 10H234L218 5H63L58 0H430Z" fill="#AF9CFD" fill-opacity="0.6"/>
<path d="M74 389L58 370H85L96 381H312L327 389H74Z" fill="#AF9CFD" fill-opacity="0.6"/>
<path d="M1253 389L1269 370H1242L1231 381H1035L1020 389L1253 389Z" fill="#AF9CFD" fill-opacity="0.6"/>
</svg>
