<svg width="191" height="175" viewBox="0 0 191 175" fill="none" xmlns="http://www.w3.org/2000/svg">
<path d="M14.7499 167.99C10.306 167.99 7.55217 164.037 7.55217 158.568C7.55217 153.153 9.86971 149.119 14.7225 149.119C17.9123 149.119 20.0116 151.149 20.3937 153.83H27.8095C27.4274 150.5 25.928 147.576 23.3109 145.626C21.1842 144.002 18.2396 143 14.7499 143C5.80723 143 0 149.714 0 158.568C0 167.475 5.99812 174 14.8047 174C19.0301 174 22.1109 172.836 24.4013 170.616C26.4459 168.666 27.8095 165.959 28 163.008H20.5842C20.2574 165.905 18.076 167.99 14.7499 167.99Z" fill="white"/>
<path d="M42.5137 152C35.6219 152 31 156.964 31 163.5C31 170.036 35.6219 175 42.5137 175C49.4599 175 54 170.036 54 163.5C54 156.964 49.4599 152 42.5137 152ZM42.4863 170.064C39.5051 170.064 37.9462 167.444 37.9462 163.5C37.9462 159.556 39.5051 156.881 42.4863 156.881C45.4674 156.881 47.0807 159.556 47.0807 163.5C47.0538 167.444 45.4674 170.064 42.4863 170.064Z" fill="white"/>
<path d="M64.8285 148.975C66.3905 147.608 66.3905 145.392 64.8285 144.025C63.2658 142.658 60.7335 142.658 59.1715 144.025C57.6095 145.392 57.6095 147.608 59.1715 148.975C60.7335 150.342 63.2658 150.342 64.8285 148.975Z" fill="white"/>
<path d="M55 156.942H57.9574V174H65V152H55V156.942Z" fill="white"/>
<path d="M82.4584 152C79.4588 152 77.3666 153.249 75.7707 155.558H75.6331V152.625H69V174H75.9083V162.185C75.9083 159.551 77.4219 157.677 79.7064 157.677C81.9633 157.677 83.0917 159.225 83.0917 161.479V174H90V160.094C90 155.341 87.1927 152 82.4584 152Z" fill="white"/>
<path d="M105.948 144H93V174H105.479C109.288 174 112.353 173.045 114.727 171.27C118.123 168.704 120 164.473 120 159.177C120 150.005 114.34 144 105.948 144ZM104.927 167.776H100.509V150.224H105.009C109.73 150.224 112.408 153.745 112.408 159.205C112.38 164.691 109.841 167.776 104.927 167.776Z" fill="white"/>
<path d="M140.234 154.706C138.392 153.022 135.98 152 132.946 152C126.443 152 122 156.97 122 163.459C122 170.03 126.335 175 133.38 175C136.089 175 138.256 174.282 140.044 173.012C141.913 171.687 143.16 169.837 143.62 167.876H137.009C136.414 169.229 135.249 170.03 133.461 170.03C130.67 170.03 129.098 168.208 128.665 165.281H144C144.027 160.836 142.781 157.08 140.234 154.706ZM128.692 161.139C129.153 158.544 130.48 156.887 133.054 156.887C135.249 156.887 136.847 158.544 137.091 161.139H128.692Z" fill="white"/>
<path d="M157.876 160.632C155.176 160.136 152.775 159.915 152.775 158.398C152.775 157.047 154.07 156.412 155.716 156.412C157.579 156.412 158.875 157.019 159.117 158.95H165.352C165.028 154.675 161.79 152 155.77 152C150.75 152 146.593 154.372 146.593 158.95C146.593 164.052 150.534 165.044 154.232 165.679C157.066 166.175 159.63 166.396 159.63 168.354C159.63 169.76 158.335 170.505 156.31 170.505C154.07 170.505 152.666 169.457 152.396 167.278H146C146.216 172.077 150.102 175 156.337 175C161.897 175 166 172.546 166 167.802C166.027 162.259 161.628 161.266 157.876 160.632Z" fill="white"/>
<path d="M182.524 160.582L190.122 152.509H182.194L175.776 159.764V144H169V174H175.776V167.4L177.86 165.218L183.045 174H191L182.524 160.582Z" fill="white"/>
<path d="M96 70C99.3138 70 102 67.3137 102 63.9999C102 60.6861 99.3138 58 96 58C92.6864 58 90 60.6861 90 63.9999C90 67.3137 92.6864 70 96 70Z" fill="white"/>
<path d="M143 70C146.314 70 149 67.3137 149 63.9999C149 60.6861 146.314 58 143 58C139.686 58 137 60.6861 137 63.9999C137 67.3137 139.686 70 143 70Z" fill="white"/>
<path d="M143 116C146.314 116 149 113.314 149 110C149 106.686 146.314 104 143 104C139.686 104 137 106.686 137 110C137 113.314 139.686 116 143 116Z" fill="white"/>
<path d="M159.958 15.9898C159.341 7.52162 152.473 0.655507 143.908 0.045186C138.429 -0.336265 133.49 1.72356 130.018 5.23292C127.394 7.90306 123.845 9.50516 120.064 9.50516H118.675C114.816 9.50516 111.19 7.90306 108.489 5.15662C105.325 1.95243 100.927 0.045186 96.0653 0.045186C91.2038 0.045186 86.8054 2.02873 83.6417 5.15662C80.9409 7.90306 77.3142 9.50516 73.4559 9.50516H72.144C68.363 9.50516 64.7362 8.05565 62.1125 5.3855C61.5725 4.85147 61.0322 4.31744 60.4921 3.85969C53.9332 -1.40433 44.2874 -1.25175 37.9599 4.31744C30.3205 10.9547 30.0119 22.5508 37.1111 29.5694C37.1882 29.6457 37.2654 29.722 37.3426 29.7983C40.1205 32.3921 41.5867 36.0542 41.5867 39.7924V41.0893C41.5867 44.9038 39.9662 48.4894 37.1882 51.1596C33.9473 54.2875 32.0182 58.6359 32.0182 63.4423C32.0182 68.2486 34.0245 72.5971 37.1882 75.7251C39.9662 78.3953 41.5867 81.9809 41.5867 85.7953V87.5501C41.5867 91.2883 39.9662 94.7976 37.2654 97.3914C33.8701 100.672 31.7867 105.326 32.0182 110.437C32.404 119.439 39.8118 126.687 48.8402 126.992C54.0875 127.145 58.7945 125.085 62.1125 121.652C64.7362 118.982 68.2857 117.303 72.0669 117.303H73.533C77.3142 117.303 80.8637 118.905 83.4874 121.652C86.9597 125.237 91.9755 127.297 97.4543 126.916C106.019 126.305 112.964 119.439 113.582 110.895C114.276 100.748 106.251 92.3563 96.1425 92.3563C91.3581 92.3563 86.9597 94.2635 83.796 97.3914C81.0952 100.062 77.4685 101.664 73.6873 101.664H72.0669C68.2857 101.664 64.5819 100.214 61.8811 97.4677C61.8039 97.3914 61.8039 97.3914 61.7268 97.3151C58.9488 94.645 57.3284 91.0594 57.3284 87.2449V85.719C57.3284 81.9045 58.9488 78.319 61.7268 75.6488C64.9677 72.5208 66.8969 68.1722 66.8969 63.366C66.8969 58.5598 64.8905 54.2112 61.7268 51.0833C58.9488 48.4131 57.3284 44.8275 57.3284 41.013V39.6398C57.3284 35.8253 58.9488 32.2395 61.6496 29.5694C61.7268 29.4933 61.7268 29.4933 61.8039 29.417C61.8811 29.3407 61.8811 29.3407 61.9582 29.2644C64.659 26.5942 68.2857 24.9921 72.144 24.9921H73.533C77.3913 24.9921 81.018 26.5942 83.7188 29.3407C86.8826 32.5448 91.281 34.4521 96.1425 34.4521C101.004 34.4521 105.402 32.4684 108.566 29.3407C111.267 26.5942 114.894 24.9921 118.752 24.9921H119.986C123.845 24.9921 127.471 26.5942 130.172 29.3407C133.336 32.5448 137.734 34.4521 142.596 34.4521C152.627 34.5284 160.652 26.1364 159.958 15.9898Z" fill="white"/>
</svg>
