<svg width="174" height="163" viewBox="0 0 174 163" fill="none" xmlns="http://www.w3.org/2000/svg">
<path d="M102.063 119.013L72.7185 131.674V130.406C67.0597 131.843 60.7928 132.673 54.8546 132.938C27.2615 132.673 5.35919 118.341 5.10316 101.287V94.9518C14.1661 108.031 32.6177 116.793 54.8546 116.477C62.3813 116.793 70.0768 115.613 76.5445 113.945L79.096 107.613C71.4268 109.885 63.0534 111.465 54.8575 111.41C27.2615 111.465 5.35919 97.1336 5.10607 79.7613V74.6968C14.1661 86.7885 32.577 95.5506 54.8575 94.9548C64.8805 95.5535 74.6824 93.4594 82.922 89.8874L84.2021 83.5582C76.1488 87.7728 65.7126 90.2203 54.8575 89.8874C27.2615 90.2203 5.35919 75.8885 5.10607 58.2387V53.1713C14.1661 65.5434 32.6177 74.3084 54.8575 74.6968C67.4961 74.3084 79.4801 70.9934 89.3053 65.8325L90.5796 58.2358C81.6651 64.7927 68.6482 69.019 54.8575 69.6294C27.2615 69.019 5.3621 54.6842 5.10607 36.7132C5.35919 19.6212 27.2615 5.28646 54.8575 5.06157C71.3075 5.28938 86.5849 11.0139 95.6828 20.255L96.5701 21.7183L103 21.7475L102.063 20.255C93.0148 8.05528 74.9181 0 54.8575 0C24.3229 0 0 16.7005 0 36.7161V102.552C1.07358 122.091 24.8408 138 54.8575 138C74.6824 138 92.4998 130.26 102.063 119.013Z" fill="white"/>
<path d="M90.1289 163L100.451 119.589L70.7771 132.357L88.843 57.0282H54L63.03 20H174L164.967 57.0282H128.841L121.097 77.4568L161.095 60.8571L90.1289 163ZM108.195 110.65L103.034 136.186L145.612 72.3497L110.772 87.6711L126.258 51.9211H161.095L167.547 25.1071H66.8992L60.4467 51.9211H95.2897L78.5126 123.421L108.192 110.656L108.195 110.65Z" fill="white"/>
</svg>
