<svg width="203" height="129" viewBox="0 0 203 129" fill="none" xmlns="http://www.w3.org/2000/svg">
<path d="M29.544 16.8759H20.8766V16.2494H21.3414C21.9159 16.2494 22.2543 15.9799 22.2543 15.2907V1.75736C22.2543 1.06811 21.9159 0.799974 21.3414 0.799974H20.8766V0.167643H29.544V5.91109H28.9695V5.8475C28.9695 2.44528 27.923 0.902694 26.0056 0.902694H24.5833V7.83432H24.9456C26.0268 7.83432 26.5336 6.81334 26.5336 4.66021V4.59663H27.1094V11.8262H26.5336V11.783C26.5336 9.67306 26.0494 8.58226 24.9456 8.58226H24.5833V16.1467H25.9185C27.8147 16.1467 28.9695 14.3257 28.9695 11.2228V11.1574H29.544V16.8759ZM20.3243 16.8759H15.2372V16.2494H15.684C16.2539 16.2494 16.6163 15.9799 16.6163 15.2907V8.72901H12.9065V15.2902C12.9065 15.9821 13.2675 16.2489 13.8401 16.2489H14.2869V16.8755H9.19983V16.2489H9.64342C10.2179 16.2489 10.5771 15.9795 10.5771 15.2902V1.75736C10.5771 1.06811 10.2179 0.799974 9.64342 0.799974H9.19983V0.167643H14.2869V0.800418H13.8401C13.267 0.800418 12.9065 1.06856 12.9065 1.75781V7.83432H16.6163V1.75736C16.6163 1.06811 16.2539 0.799974 15.684 0.799974H15.2372V0.167643H20.3243V0.800418H19.8807C19.3076 0.800418 18.9484 1.06856 18.9484 1.75781V15.2907C18.9484 15.9826 19.3076 16.2494 19.8807 16.2494H20.3243V16.8759ZM8.9214 5.952H8.35011V5.88975C8.35011 3.20034 7.31401 0.90225 6.10509 0.90225H5.59517V15.2916C5.59517 15.9821 5.95753 16.2489 6.52747 16.2489H7.0568V16.8755H1.82534V16.2489H2.33211C2.9034 16.2489 3.26306 15.9795 3.26306 15.2916V0.90225H2.81812C1.60919 0.90225 0.5731 3.05538 0.5731 5.88975V5.952H0V0.167199H8.9214V5.952ZM73.0503 16.8759H64.6357V16.2494H65.1019C65.6763 16.2494 66.0342 15.999 66.0342 15.3116V1.73513C66.0342 1.04899 65.6763 0.799974 65.1019 0.799974H64.6357V0.167643H69.7241V0.800418H69.276C68.7047 0.800418 68.3437 1.04944 68.3437 1.73557V16.1471H69.5978C71.8789 16.1471 72.4759 13.5778 72.4759 11.201V11.1374H73.0503V16.8759ZM48.9946 0.799529H48.8245C48.0081 0.799529 47.5898 0.944939 47.2997 2.31988L44.2067 17H43.2505L41.3214 7.39676H41.3002L39.3304 17H38.3756L35.344 1.94324C35.1513 0.985849 34.872 0.799084 34.0101 0.799084H33.9469V0.166754H38.524V0.799529H38.4383C37.7799 0.799529 37.6143 0.986293 37.6143 1.42474C37.6143 1.52257 37.6323 1.71957 37.6562 1.83963L39.5854 12.0343H39.6246L40.8755 5.32501L40.2212 1.94368C40.0588 1.10947 39.8647 0.799529 39.1806 0.799529H39.0768V0.166754H43.6097V0.799529H43.5271C42.7212 0.799529 42.5105 1.07968 42.5091 1.65153C42.5091 1.8085 42.533 1.98326 42.5709 2.17447L44.5019 11.908H44.5438L46.3665 2.15224C46.3935 2.00994 46.4102 1.81606 46.4102 1.69289C46.4102 1.08812 46.1846 0.799529 45.2857 0.799529H45.158V0.166754H48.9955V0.799529H48.9946ZM64.3185 16.8759H51.3881V16.2494H51.4964C52.3732 16.2494 52.6421 16.0195 52.6421 15.541C52.6421 15.4063 52.6137 15.2271 52.579 15.0359L52.1715 12.8267H49.2902L48.8904 15.0359C48.8529 15.2435 48.8258 15.3943 48.8258 15.541C48.8258 16.0595 49.0316 16.2494 49.9057 16.2494H49.9901V16.8759H46.366V16.2494H46.5569C47.2997 16.2494 47.7239 16.0791 47.9134 15.0963L50.8588 0H51.9413L54.9729 15.0354C55.1534 15.9439 55.6286 16.2489 56.0315 16.2489H56.3713C56.9444 16.2489 57.3036 15.9986 57.3036 15.3111V1.73513C57.3036 1.04899 56.9444 0.799974 56.3713 0.799974H55.9264V0.167199H61.0121V0.799974H60.5446C59.9733 0.799974 59.6123 1.04899 59.6123 1.73513V16.1467H60.8632C63.1502 16.1467 63.7445 13.5951 63.7445 11.1814V11.1178H64.3189L64.3185 16.8759ZM52.0045 12.0543L50.7324 4.66021H50.6886L49.4179 12.0543H52.0045ZM133.181 5.952H132.607V5.88841C132.607 3.20034 131.574 0.903584 130.36 0.903584H129.852V15.2916C129.852 15.9804 130.211 16.2516 130.785 16.2516H131.254V16.8737H126.1V16.2516H126.588C127.162 16.2516 127.521 15.979 127.521 15.2916V0.903584H127.076C125.863 0.903584 124.831 3.05671 124.831 5.88841V5.952H124.257V0.167199H133.182V5.952H133.181ZM123.516 16.8737H114.848V16.2516H115.315C115.887 16.2516 116.226 15.979 116.226 15.2916V1.75825C116.226 1.06945 115.887 0.798195 115.315 0.798195H114.848V0.166754H123.516V5.9102H122.945V5.84795C122.945 2.44439 121.894 0.903139 119.978 0.903139H118.557V7.83343H118.916C119.999 7.83343 120.507 6.80489 120.507 4.65932V4.59707H121.078V11.8266H120.507V11.7853C120.507 9.67217 120.02 8.58449 118.916 8.58449H118.557V16.1444H119.891C121.786 16.1444 122.945 14.3262 122.945 11.2205V11.1596H123.516V16.8737ZM114.276 16.8737H105.607V16.2516H106.074C106.647 16.2516 106.986 15.979 106.986 15.2916V1.75825C106.986 1.06945 106.647 0.798195 106.074 0.798195H105.607V0.166754H114.276V5.9102H113.702V5.84795C113.702 2.44439 112.655 0.903139 110.733 0.903139H109.314V7.83343H109.675C110.754 7.83343 111.267 6.80489 111.267 4.65932V4.59707H111.838V11.8266H111.267V11.7853C111.267 9.67217 110.775 8.58449 109.675 8.58449H109.314V16.1444H110.649C112.545 16.1444 113.702 14.3262 113.702 11.2205V11.1596H114.276V16.8737ZM94.7559 5.952H94.186V5.88841C94.186 3.20034 93.1499 0.903584 91.9378 0.903584H91.4324V15.2916C91.4324 15.9804 91.7889 16.2516 92.3615 16.2516H92.8065V16.8737H87.6788V16.2516H88.1644C88.7388 16.2516 89.098 15.979 89.098 15.2916V0.903584H88.6531C87.441 0.903584 86.4081 3.05671 86.4081 5.88841V5.952H85.835V0.167199H94.755V5.952H94.7559ZM85.8138 12.8276C85.8138 15.7807 83.9956 16.9987 81.8711 16.9987C80.3296 16.9987 79.6247 16.4993 78.8833 15.9986L78.4835 16.8728H78.0386V11.1369H78.6099V11.3059C78.6099 15.3334 80.6685 16.2507 81.7028 16.2507C83.2082 16.2507 83.969 15.1586 83.969 13.5951C83.969 11.6808 82.7466 10.276 80.9799 8.96469C79.3829 7.76895 77.9095 6.30507 77.9095 3.86913C77.9095 1.35137 79.4808 0.0417996 81.3634 0.0417996C82.9302 0.0417996 83.6581 0.674575 84.076 1.02854L84.5015 0.210777H84.9239V5.97335H84.3526V5.80748C84.3526 2.68229 83.3977 0.799084 81.5137 0.799084C80.368 0.799084 79.6884 1.6244 79.6884 2.95043C79.6884 4.5197 80.6311 5.40994 82.3828 6.7453C84.3205 8.2283 85.8138 9.79179 85.8138 12.8276ZM105.482 14.5961C105.482 15.999 104.94 16.9996 103.554 16.9996C102.16 16.9996 101.574 15.9861 101.476 13.9099L101.329 10.7999C101.249 9.16079 100.61 8.70766 99.6534 8.70766H99.037V15.2911C99.037 15.9786 99.3136 16.2512 99.8849 16.2512H100.435V16.8733H95.3092V16.2512H95.7947C96.3678 16.2512 96.727 15.9786 96.727 15.2911V1.75781C96.727 1.06856 96.3678 0.79775 95.7947 0.79775H95.3092V0.166309H99.9481C102.754 0.166309 104.504 1.58572 104.504 4.22176C104.504 6.98098 102.56 8.02108 100.838 8.35281V8.39417C102.249 8.53913 103.535 9.57968 103.616 11.1592L103.808 14.8042C103.843 15.5361 103.933 15.7496 104.294 15.7496C104.716 15.7496 104.822 15.4352 104.822 14.3462V13.7419H105.482V14.5961ZM102.067 4.2649C102.067 1.65109 101.02 0.902694 99.5885 0.902694H99.0366V7.93793H99.6742C101.167 7.93837 102.067 6.93963 102.067 4.2649ZM203 15.8518C203 16.4815 202.529 16.9987 202.026 16.9987C201.527 16.9987 201.054 16.4815 201.054 15.8518C201.054 15.228 201.526 14.7228 202.026 14.7228C202.529 14.7228 203 15.228 203 15.8518ZM182.976 0.79864H182.522C181.994 0.79864 181.568 1.19307 181.568 2.00772V16.9377H180.74L175.445 3.7842H175.403V15.0336C175.403 15.8532 175.826 16.2503 176.357 16.2503H176.806V16.8742H173.241V16.2503H173.689C174.217 16.2503 174.642 15.8532 174.642 15.0336V1.84007C174.642 1.25621 174.411 0.798195 173.813 0.798195H173.241V0.167199H176.464L180.764 10.9235H180.802V2.00772C180.802 1.18551 180.379 0.79864 179.854 0.79864H179.411V0.167199H182.976V0.79864H182.976ZM144.375 0.79864H143.912C143.336 0.79864 142.978 1.06678 142.978 1.7587V13.4097C142.978 16.0248 141.312 16.9987 139.183 16.9987C137.663 16.9987 136.132 15.7731 136.132 13.4097C136.132 12.1428 136.932 11.5958 137.574 11.5958C138.239 11.5958 138.719 12.0583 138.719 12.8449C138.719 13.8526 138.122 14.2777 137.343 14.3875C137.343 15.2515 138.013 16.2503 139.161 16.2503C140.266 16.2503 140.648 15.6473 140.648 13.8481V1.7587C140.648 1.06811 140.311 0.79864 139.735 0.79864H139.206V0.167199H144.376V0.79864H144.375ZM200.061 16.8742H187.099V16.2503H187.228C188.103 16.2503 188.372 16.0204 188.372 15.5406C188.372 15.4058 188.341 15.2266 188.308 15.0336L187.906 12.8272H185.028L184.627 15.0336C184.589 15.244 184.563 15.3938 184.563 15.5406C184.563 16.0577 184.766 16.2503 185.641 16.2503H185.727V16.8742H182.099V16.2503H182.289C183.04 16.2503 183.462 16.0782 183.653 15.099L186.595 0H187.673L190.706 15.0341C190.888 15.9452 191.366 16.2507 191.774 16.2507H192.112C192.683 16.2507 193.041 15.999 193.041 15.3129V1.73646C193.041 1.04899 192.683 0.79864 192.112 0.79864H191.649V0.167199H196.763V0.79864H196.279C195.706 0.79864 195.345 1.04899 195.345 1.73646V16.1436H196.595C198.882 16.1436 199.479 13.5951 199.479 11.2005V11.1369H200.061L200.061 16.8742ZM187.736 12.0543L186.464 4.66021H186.423L185.156 12.0543H187.736ZM173.156 14.5961C173.156 15.999 172.617 16.9996 171.229 16.9996C169.84 16.9996 169.252 15.9861 169.151 13.9099L169.004 10.7999C168.923 9.15368 168.288 8.70766 167.332 8.70766H166.716V15.2911C166.716 15.9786 166.992 16.2512 167.567 16.2512H168.091V16.8733H162.986V16.2512H163.475C164.048 16.2512 164.402 15.9786 164.402 15.2911V1.75781C164.402 1.07478 164.055 0.79775 163.496 0.79775H162.603C162.075 0.79775 161.756 1.23487 161.756 2.00683V13.138C161.756 15.3578 161.008 16.9996 158.579 16.9996C155.994 16.9996 154.489 15.4392 154.489 13.138V1.75781C154.489 1.06722 154.15 0.79775 153.578 0.79775H153.107V0.166309H158.218V0.79775H157.752C157.175 0.79775 156.841 1.06722 156.841 1.75781V13.2843C156.841 15.163 157.592 16.1649 158.877 16.1649C160.176 16.1649 160.971 15.3351 160.971 13.2843V2.00683C160.971 1.23487 160.675 0.79775 160.144 0.79775H159.616V0.166309H167.628C170.431 0.166309 172.184 1.58572 172.184 4.22176C172.184 6.98098 170.234 8.02108 168.515 8.35281V8.39417C169.926 8.53913 171.211 9.57345 171.295 11.1592L171.486 14.8042C171.522 15.5361 171.613 15.7496 171.972 15.7496C172.394 15.7496 172.501 15.4352 172.501 14.3462V13.7419H173.156V14.5961ZM169.746 4.2649C169.746 1.65109 168.698 0.902694 167.268 0.902694H166.715V7.93793H167.352C168.846 7.93837 169.746 6.93963 169.746 4.2649ZM153.152 8.48088C153.152 13.2287 151.571 16.9996 148.678 16.9996C145.857 16.9996 144.273 13.2287 144.273 8.48088C144.273 3.73484 145.79 0.0422443 148.678 0.0422443C151.537 0.0422443 153.152 3.73484 153.152 8.48088ZM150.524 12.4518V4.55572C150.524 1.66798 149.872 0.79775 148.678 0.79775C147.484 0.79775 146.878 1.62485 146.878 4.59707V12.4283C146.878 15.2124 147.417 16.2512 148.678 16.2512C149.916 16.2512 150.524 15.1444 150.524 12.4518Z" fill="white"/>
<path d="M94.9943 26.0222H93.9203C88.7669 26.0222 86.1261 26.9465 84.2944 35.6863L64.7691 129H58.7326L46.5542 67.9573H46.4204L33.9856 129H27.9576L8.81973 33.2922C7.60332 27.2066 5.83996 26.0194 0.398861 26.0194H0V22H28.8949V26.0222H28.3536C24.1973 26.0222 23.1518 27.2094 23.1518 29.9964C23.1518 30.6182 23.2657 31.8704 23.4167 32.6336L35.5951 97.4356H35.843L43.7397 54.7883L39.609 33.295C38.5834 27.9923 37.3584 26.0222 33.0397 26.0222H32.3845V22H61.0002V26.0222H60.4789C55.391 26.0222 54.0607 27.803 54.0521 31.4379C54.0521 32.4357 54.2031 33.5466 54.4424 34.762L66.6322 96.6329H66.8971L78.4032 34.6207C78.5741 33.7162 78.6795 32.4838 78.6795 31.7008C78.6795 27.8567 77.2552 26.0222 71.5805 26.0222H70.7743V22H95V26.0222H94.9943Z" fill="white"/>
<path d="M145 102.434C145 121.243 133.499 129 120.06 129C110.309 129 105.85 125.819 101.16 122.63L98.631 128.198H95.8164V91.666H99.4303V92.7423C99.4303 118.393 112.453 124.236 118.995 124.236C128.518 124.236 133.331 117.28 133.331 107.322C133.331 95.1298 125.598 86.1829 114.422 77.8308C104.32 70.215 95 60.8914 95 45.3767C95 29.3408 104.939 21 116.849 21C126.76 21 131.364 25.0302 134.007 27.2846L136.699 22.0762H139.371V58.7786H135.757V57.7222C135.757 37.8176 129.717 25.8232 117.799 25.8232C110.551 25.8232 106.253 31.0798 106.253 39.5254C106.253 49.5202 112.216 55.1902 123.297 63.6953C135.554 73.1407 145 83.0987 145 102.434Z" fill="white"/>
<path d="M202.997 26.0142H200.077C196.444 26.0142 194.187 27.7188 194.187 32.1174V106.184C194.187 122.809 183.678 129 170.245 129C160.655 129 151 121.209 151 106.184C151 98.1305 156.047 94.6535 160.097 94.6535C164.29 94.6535 167.316 97.5934 167.316 102.594C167.316 109 163.55 111.702 158.637 112.401C158.637 117.893 162.867 124.242 170.106 124.242C177.077 124.242 179.488 120.409 179.488 108.972V32.1174C179.488 27.7272 177.364 26.0142 173.729 26.0142H170.39V22H203V26.0142H202.997Z" fill="white"/>
</svg>
