<svg width="147" height="37" viewBox="0 0 147 37" fill="none" xmlns="http://www.w3.org/2000/svg">
<path d="M47.7791 29.6094V12.5167H51.3855V19.0039C51.7494 17.9384 53.1767 17.1887 55.0179 17.1887C56.7372 17.1887 58.1906 17.7944 59.3281 19.0279C60.4896 20.2394 61.0714 21.7388 61.0714 23.506C61.0714 25.2732 60.4896 26.7746 59.3281 28.0101C58.1906 29.2216 56.7372 29.8253 55.0179 29.8253C53.1787 29.8253 51.7494 29.0736 51.3855 28.0101V29.6074H47.7791V29.6094ZM56.5673 25.6871C57.173 25.0813 57.4629 24.3556 57.4629 23.508C57.4629 22.6604 57.173 21.9347 56.5673 21.3529C55.9615 20.7472 55.2358 20.4573 54.3642 20.4573C53.4926 20.4573 52.7169 20.7472 52.0892 21.3529C51.4835 21.9347 51.1696 22.6604 51.1696 23.508C51.1696 24.3556 51.4835 25.0813 52.0892 25.6871C52.7189 26.2688 53.4686 26.5587 54.3642 26.5587C55.2598 26.5587 55.9615 26.2688 56.5673 25.6871Z" fill="white"/>
<path d="M62.3149 29.6094V12.5167H65.9214V29.6094H62.3149Z" fill="white"/>
<path d="M67.9126 17.4066H71.569V24.3796C71.569 25.929 72.4647 26.6307 73.7961 26.6307C75.1275 26.6307 76.0231 25.929 76.0231 24.3796V17.4066H79.6795V24.6935C79.6795 26.3888 79.1218 27.6962 77.9843 28.5918C76.8707 29.4874 75.4654 29.9472 73.7961 29.9472C72.1268 29.9472 70.7214 29.4874 69.5839 28.5918C68.4703 27.6962 67.9126 26.3888 67.9126 24.6935V17.4066Z" fill="white"/>
<path d="M85.5428 30.3351L80.531 17.4066H84.0655L86.2446 23.2661L89.5132 17.4566L92.7817 23.2661L94.9608 17.4066H98.4953L93.4835 30.3351L89.5132 23.3141L85.5428 30.3351Z" fill="white"/>
<path d="M99.4668 29.6094V12.5167H103.073V18.884C103.557 17.8184 104.865 17.1407 106.488 17.1407C109.369 17.1407 111.016 19.0299 111.016 22.2006V29.6094H107.409V22.6364C107.409 21.209 106.66 20.3354 105.328 20.3354C103.997 20.3354 103.077 21.3269 103.077 22.7563V29.6074H99.4708L99.4668 29.6094Z" fill="white"/>
<path d="M122.205 19.0039V17.4066H125.812V29.6094H122.205V28.0121C121.841 29.0776 120.414 29.8273 118.573 29.8273C116.853 29.8273 115.4 29.2215 114.239 28.0121C113.101 26.7766 112.519 25.2752 112.519 23.508C112.519 21.7407 113.101 20.2394 114.239 19.0299C115.4 17.7944 116.853 17.1907 118.573 17.1907C120.412 17.1907 121.841 17.9404 122.205 19.0059V19.0039ZM121.48 25.6851C122.109 25.0793 122.423 24.3536 122.423 23.506C122.423 22.6584 122.109 21.9327 121.48 21.3509C120.874 20.7452 120.124 20.4553 119.228 20.4553C118.333 20.4553 117.631 20.7452 117.025 21.3509C116.42 21.9327 116.13 22.6584 116.13 23.506C116.13 24.3536 116.42 25.0793 117.025 25.6851C117.631 26.2668 118.357 26.5567 119.228 26.5567C120.1 26.5567 120.876 26.2668 121.48 25.6851Z" fill="white"/>
<path d="M128.207 29.6094V12.5167H131.813V29.6094H128.207Z" fill="white"/>
<path d="M133.702 23.484C133.702 21.5708 134.308 20.0455 135.517 18.884C136.753 17.6985 138.302 17.1167 140.165 17.1167C142.029 17.1167 143.482 17.7225 144.62 18.908C145.757 20.0934 146.339 21.5468 146.339 23.2901C146.339 23.7019 146.315 24.1137 146.267 24.4756H137.309C137.381 25.9289 138.616 26.8485 140.529 26.8485C142.273 26.8485 143.726 26.4607 144.863 25.6631V28.8097C143.702 29.5594 142.201 29.9232 140.335 29.9232C138.35 29.9232 136.753 29.3415 135.517 28.204C134.306 27.0425 133.702 25.5171 133.702 23.6039V23.482V23.484ZM142.708 22.1286C142.708 21.039 141.595 20.1194 140.165 20.1194C139.416 20.1194 138.762 20.3133 138.204 20.7012C137.646 21.089 137.357 21.5728 137.333 22.1306H142.708V22.1286Z" fill="white"/>
<path d="M20.6587 32.1723C19.2933 32.1723 19.0014 32.1743 18.6975 32.1763C17.7 32.1823 16.6685 32.1923 15.6249 32.1843C11.9705 32.2143 7.48034 31.9284 4.00783 30.6689C3.94386 30.6449 3.89196 30.7249 3.93794 30.7749C4.55568 31.4266 5.22138 32.0343 5.92908 32.5921C9.02775 35.0271 12.936 36.4804 17.1882 36.4804C19.6112 36.4804 21.9242 36.0086 24.0333 35.153C25.3647 34.6152 26.6182 33.9235 27.7677 33.1039C25.4067 32.6261 23.0797 32.1723 20.6587 32.1723Z" fill="white"/>
<path d="M15.3392 29.4874C21.8724 29.4874 25.9627 26.0749 27.7319 21.8067C28.4016 20.1874 28.7454 18.4522 28.7714 16.7289C28.7954 15.0056 28.5036 13.2984 27.8958 11.7451C26.9083 9.21015 25.063 7.07905 22.3862 5.96353C23.1858 7.07905 23.7576 8.30454 24.1135 9.57399C24.6932 11.6431 24.7011 13.8282 24.1954 15.8553C23.6856 17.8984 22.6561 19.7916 21.1707 21.257C19.3635 23.0382 16.8985 24.1797 13.8898 24.1897C9.43174 24.2057 4.87366 24.2197 0.40958 24.2197C0.217662 24.2197 0.0897837 24.4236 0.177746 24.5935C2.47876 29.0896 10.5833 29.4375 15.3413 29.4874H15.3392Z" fill="white"/>
<path d="M20.6587 32.1723C19.2933 32.1723 19.0014 32.1743 18.6975 32.1763C17.7 32.1823 16.6685 32.1923 15.6249 32.1843C11.9705 32.2143 7.48034 31.9284 4.00783 30.6689C3.94386 30.6449 3.89196 30.7249 3.93794 30.7749C4.55568 31.4266 5.22138 32.0343 5.92908 32.5921C9.02775 35.0271 12.936 36.4804 17.1882 36.4804C19.6112 36.4804 21.9242 36.0086 24.0333 35.153C25.3647 34.6152 26.6182 33.9235 27.7677 33.1039C25.4067 32.6261 23.0797 32.1723 20.6587 32.1723Z" fill="white"/>
<path d="M15.3392 29.4874C21.8724 29.4874 25.9627 26.0749 27.7319 21.8067C28.4016 20.1874 28.7454 18.4522 28.7714 16.7289C28.7954 15.0056 28.5036 13.2984 27.8958 11.7451C26.9083 9.21015 25.063 7.07905 22.3862 5.96353C23.1858 7.07905 23.7576 8.30454 24.1135 9.57399C24.6932 11.6431 24.7011 13.8282 24.1954 15.8553C23.6856 17.8984 22.6561 19.7916 21.1707 21.257C19.3635 23.0382 16.8985 24.1797 13.8898 24.1897C9.43174 24.2057 4.87366 24.2197 0.40958 24.2197C0.217662 24.2197 0.0897837 24.4236 0.177746 24.5935C2.47876 29.0896 10.5833 29.4375 15.3413 29.4874H15.3392Z" fill="white"/>
<path d="M38.1213 32.0243L33.5732 26.3548L33.6652 26.1369C39.4727 14.23 30.6304 -0.0438797 17.2522 0.000101385C4.71157 0.208012 0.535413 10.6115 0.00763994 12.0849C-0.0223472 12.1689 0.0395989 12.2568 0.12956 12.2568C3.5221 12.2568 10.3052 12.6107 10.895 8.23256C11.4707 12.6167 18.2698 12.2668 21.6623 12.2648C21.7523 12.2648 21.8143 12.1749 21.7843 12.0909C20.4829 8.45847 18.0399 5.31782 14.8453 3.15075C23.2237 1.80333 31.0643 8.31852 31.4562 16.609C31.4562 16.643 31.4562 16.6769 31.4562 16.7109C31.75 22.1326 28.9052 27.1444 24.5531 29.7793L37.9953 32.2383C38.1133 32.2603 38.1953 32.1223 38.1193 32.0303L38.1213 32.0243Z" fill="white"/>
</svg>
