<svg width="23" height="22" viewBox="0 0 23 22" fill="none" xmlns="http://www.w3.org/2000/svg">
<path d="M0.978482 21.8804H5.47107V7.37277H0.978482V21.8804ZM12.6533 14.2651C12.6533 12.2258 13.5926 11.0102 15.3909 11.0102C17.0429 11.0102 17.8364 12.1765 17.8364 14.2651V21.8809L22.3086 21.8804V12.695C22.3086 8.80895 20.1046 6.92988 17.0272 6.92988C13.9485 6.92988 12.6533 9.32707 12.6533 9.32707V7.37277H8.34352V21.8804H12.6533V14.2651ZM3.20373 5.47329C4.67078 5.47329 5.86016 4.27385 5.86016 2.79558C5.86016 1.31774 4.67078 0.119141 3.20373 0.119141C1.73583 0.119141 0.546875 1.31774 0.546875 2.79558C0.546875 4.27385 1.73583 5.47329 3.20373 5.47329Z" fill="white"/>
</svg>
