<svg width="24" height="20" viewBox="0 0 24 20" fill="none" xmlns="http://www.w3.org/2000/svg">
<path d="M21.8313 0.176567C21.8313 0.176567 24.0241 -0.68915 23.8413 1.4133C23.7804 2.27902 23.2322 5.30903 22.8059 8.58639L21.344 18.2948C21.344 18.2948 21.2222 19.717 20.1258 19.9644C19.0294 20.2117 17.3848 19.0987 17.0803 18.8513C16.8367 18.6658 12.512 15.8831 10.9893 14.5227C10.5629 14.1517 10.0756 13.4097 11.0502 12.5439L17.4458 6.36026C18.1767 5.61821 18.9076 3.88678 15.8621 5.98924L7.33467 11.8637C7.33467 11.8637 6.36011 12.4821 4.53281 11.9256L0.573647 10.6888C0.573647 10.6888 -0.888196 9.76129 1.60912 8.83373C7.70013 5.9274 15.1921 2.95923 21.8313 0.176567Z" fill="white"/>
</svg>
