<svg width="30" height="30" viewBox="0 0 30 30" fill="none" xmlns="http://www.w3.org/2000/svg">
<path d="M16.1653 26.1046C15.0969 26.1046 14.8685 26.1062 14.6307 26.1077C13.8501 26.1124 13.043 26.1203 12.2264 26.114C9.3668 26.1375 5.85327 25.9138 3.13603 24.9282C3.08598 24.9095 3.04537 24.972 3.08134 25.0111C3.56472 25.5211 4.08564 25.9967 4.63941 26.4331C7.06411 28.3385 10.1223 29.4757 13.4497 29.4757C15.3456 29.4757 17.1556 29.1066 18.8059 28.437C19.8478 28.0162 20.8286 27.475 21.7281 26.8336C19.8806 26.4597 18.0597 26.1046 16.1653 26.1046Z" fill="white"/>
<path d="M12.0029 24.0036C17.1151 24.0036 20.3158 21.3333 21.7002 17.9935C22.2243 16.7264 22.4933 15.3685 22.5136 14.0201C22.5324 12.6716 22.304 11.3357 21.8285 10.1202C21.0557 8.13666 19.6118 6.46908 17.5172 5.59619C18.1429 6.46908 18.5903 7.42803 18.8688 8.42137C19.3224 10.0404 19.3286 11.7502 18.9329 13.3365C18.534 14.9352 17.7283 16.4166 16.5661 17.5633C15.1519 18.9571 13.2231 19.8503 10.8688 19.8582C7.38035 19.8707 3.81366 19.8816 0.320523 19.8816C0.170348 19.8816 0.0702827 20.0412 0.139113 20.1741C1.93965 23.6923 8.28144 23.9645 12.0045 24.0036H12.0029Z" fill="white"/>
<path d="M16.1653 26.1046C15.0969 26.1046 14.8685 26.1062 14.6307 26.1077C13.8501 26.1124 13.043 26.1203 12.2264 26.114C9.3668 26.1375 5.85327 25.9138 3.13603 24.9282C3.08598 24.9095 3.04537 24.972 3.08134 25.0111C3.56472 25.5211 4.08564 25.9967 4.63941 26.4331C7.06411 28.3385 10.1223 29.4757 13.4497 29.4757C15.3456 29.4757 17.1556 29.1066 18.8059 28.437C19.8478 28.0162 20.8286 27.475 21.7281 26.8336C19.8806 26.4597 18.0597 26.1046 16.1653 26.1046Z" fill="white"/>
<path d="M12.0029 24.0036C17.1151 24.0036 20.3158 21.3333 21.7002 17.9935C22.2243 16.7264 22.4933 15.3685 22.5136 14.0201C22.5324 12.6716 22.304 11.3357 21.8285 10.1202C21.0557 8.13666 19.6118 6.46908 17.5172 5.59619C18.1429 6.46908 18.5903 7.42803 18.8688 8.42137C19.3224 10.0404 19.3286 11.7502 18.9329 13.3365C18.534 14.9352 17.7283 16.4166 16.5661 17.5633C15.1519 18.9571 13.2231 19.8503 10.8688 19.8582C7.38035 19.8707 3.81366 19.8816 0.320523 19.8816C0.170348 19.8816 0.0702827 20.0412 0.139113 20.1741C1.93965 23.6923 8.28144 23.9645 12.0045 24.0036H12.0029Z" fill="white"/>
<path d="M29.8298 25.9887L26.271 21.5523L26.3429 21.3818C30.8873 12.0646 23.9683 0.895352 13.4998 0.929767C3.6868 1.09246 0.41896 9.2332 0.00597824 10.3861C-0.0174866 10.4518 0.0309861 10.5206 0.101381 10.5206C2.75604 10.5206 8.06381 10.7975 8.52529 7.37165C8.97581 10.8022 14.2961 10.5285 16.9507 10.5269C17.0211 10.5269 17.0697 10.4565 17.0462 10.3908C16.0278 7.54842 14.1162 5.09087 11.6164 3.39514C18.1725 2.34079 24.3078 7.43892 24.6144 13.9262C24.6144 13.9528 24.6144 13.9794 24.6144 14.006C24.8443 18.2484 22.6183 22.1702 19.2127 24.2319L29.7313 26.1561C29.8236 26.1733 29.8877 26.0653 29.8283 25.9934L29.8298 25.9887Z" fill="white"/>
</svg>
