<svg width="32" height="18" viewBox="0 0 32 18" fill="none" xmlns="http://www.w3.org/2000/svg">
<path d="M17.9463 9.00027C17.9463 13.683 14.1099 17.4793 9.37729 17.4793C4.64471 17.4793 0.808594 13.6842 0.808594 9.00027C0.808594 4.31636 4.645 0.521484 9.37729 0.521484C14.1096 0.521484 17.9463 4.31751 17.9463 9.00027ZM27.3466 9.00027C27.3466 13.4085 25.4282 16.9818 23.0621 16.9818C20.6959 16.9818 18.7776 13.4074 18.7776 9.00027C18.7776 4.59316 20.6959 1.01876 23.0621 1.01876C25.4282 1.01876 27.3466 4.59316 27.3466 9.00027ZM31.1914 9.00027C31.1914 12.9498 30.5167 16.1514 29.6845 16.1514C28.8523 16.1514 28.1776 12.9487 28.1776 9.00027C28.1776 5.05183 28.8523 1.84916 29.6848 1.84916C30.5172 1.84916 31.1914 5.05097 31.1914 9.00027Z" fill="white"/>
</svg>
