<svg width="30" height="24" viewBox="0 0 30 24" fill="none" xmlns="http://www.w3.org/2000/svg">
<path d="M25.0612 2.69565C23.1463 1.82215 21.1527 1.18688 19.0804 0.842773C18.8181 1.31923 18.5295 1.92803 18.3197 2.43096C16.1162 2.08685 13.8865 2.08685 11.6831 2.43096C11.447 1.87509 11.1847 1.3457 10.8961 0.842773C8.82384 1.18688 6.80401 1.82215 4.91534 2.72212C1.13799 8.41311 0.114961 13.9453 0.613361 19.4245C2.84304 21.0921 5.30881 22.3626 7.9582 23.1567C8.56152 22.3362 9.08615 21.4891 9.53209 20.5892C8.66645 20.2715 7.85327 19.8745 7.06633 19.398C7.27618 19.2392 7.4598 19.0804 7.66965 18.9216C12.3126 21.145 17.7163 21.145 22.3593 18.9216C22.5692 19.0804 22.7528 19.2392 22.9626 19.398C22.1757 19.8745 21.3363 20.2715 20.4706 20.5892C20.9166 21.4891 21.4412 22.3362 22.0445 23.1567C24.6939 22.3362 27.1859 21.0921 29.3894 19.4245C29.9665 13.0718 28.3401 7.56608 25.0612 2.69565ZM10.1616 16.0364C8.71891 16.0364 7.56472 14.7129 7.56472 13.0982C7.56472 11.4836 8.71891 10.1336 10.1616 10.1336C11.6306 10.1336 12.7848 11.4571 12.7848 13.0982C12.7586 14.7129 11.6306 16.0364 10.1616 16.0364ZM19.8149 16.0364C18.3721 16.0364 17.2179 14.7129 17.2179 13.0982C17.2179 11.4836 18.3721 10.1336 19.8149 10.1336C21.2838 10.1336 22.438 11.4571 22.4118 13.0982C22.3856 14.7394 21.2576 16.0364 19.8149 16.0364Z" fill="white"/>
</svg>
