<svg width="638" height="704" viewBox="0 0 638 704" fill="none" xmlns="http://www.w3.org/2000/svg">
<mask id="mask0_142_101281" style="mask-type:alpha" maskUnits="userSpaceOnUse" x="0" y="0" width="638" height="704">
<path d="M4.47591e-05 111.094C0.017824 97.6214 5.3317 84.6946 14.7966 75.104L73.8415 15.2753C83.4871 5.50167 96.6464 0 110.378 0H586.667C590.21 0 593.67 0.359105 597.012 1.04291C620.404 5.82956 638 26.5266 638 51.3334L638 592.632C638 592.655 638 592.677 638 592.7C637.982 606.173 632.668 619.1 623.203 628.69L564.159 688.519C554.513 698.292 541.354 703.794 527.622 703.794H51.3333C22.9828 703.794 4.47591e-05 680.811 0 652.461L4.47591e-05 111.094Z" fill="#D9D9D9"/>
</mask>
<g mask="url(#mask0_142_101281)">
<path d="M4.47591e-05 111.094C0.017824 97.6214 5.3317 84.6946 14.7966 75.104L73.8415 15.2753C83.4871 5.50167 96.6464 0 110.378 0H586.667C590.21 0 593.67 0.359105 597.012 1.04291C620.404 5.82956 638 26.5266 638 51.3334L638 592.632C638 592.655 638 592.677 638 592.7C637.982 606.173 632.668 619.1 623.203 628.69L564.159 688.519C554.513 698.292 541.354 703.794 527.622 703.794H51.3333C22.9828 703.794 4.47591e-05 680.811 0 652.461L4.47591e-05 111.094Z" fill="#0C0529"/>
<mask id="mask1_142_101281" style="mask-type:alpha" maskUnits="userSpaceOnUse" x="10" y="10" width="618" height="684">
<path d="M10 121.094C10.0178 107.621 15.3317 94.6946 24.7966 85.104L83.8415 25.2753C93.487 15.5017 106.646 10 120.378 10H576.667C580.21 10 583.67 10.3591 587.012 11.0429C610.404 15.8296 628 36.5266 628 61.3334L628 582.632C628 582.655 628 582.677 628 582.7C627.982 596.173 622.668 609.1 613.203 618.69L554.159 678.519C544.513 688.292 531.354 693.794 517.622 693.794H61.3333C32.9828 693.794 10 670.811 10 642.461L10 121.094Z" fill="#1A0D3E"/>
</mask>
<g mask="url(#mask1_142_101281)">
<path d="M10 121.094C10.0178 107.621 15.3317 94.6946 24.7966 85.104L83.8415 25.2753C93.487 15.5017 106.646 10 120.378 10H576.667C580.21 10 583.67 10.3591 587.012 11.0429C610.404 15.8296 628 36.5266 628 61.3334L628 582.632C628 582.655 628 582.677 628 582.7C627.982 596.173 622.668 609.1 613.203 618.69L554.159 678.519C544.513 688.292 531.354 693.794 517.622 693.794H61.3333C32.9828 693.794 10 670.811 10 642.461L10 121.094Z" fill="#1A0D3E"/>
<g filter="url(#filter0_f_142_101281)">
<circle cx="1153.17" cy="1299.1" r="902.367" fill="url(#paint0_angular_142_101281)"/>
</g>
<g filter="url(#filter1_f_142_101281)">
<circle cx="-464.567" cy="-589.966" r="902.367" fill="url(#paint1_angular_142_101281)"/>
</g>
</g>
<path d="M4.47594e-05 524.037H638L638 592.632C638 592.654 638 592.677 638 592.7C637.982 606.172 632.668 619.099 623.203 628.69L564.159 688.518C554.513 698.292 541.354 703.794 527.622 703.794H51.3333C22.9828 703.794 4.47591e-05 680.811 0 652.46L4.47594e-05 524.037Z" fill="#0C0529"/>
<mask id="mask2_142_101281" style="mask-type:alpha" maskUnits="userSpaceOnUse" x="10" y="573" width="618" height="121">
<path d="M10 573H628V582.7V582.632C628 582.655 628 582.677 628 582.7C627.982 596.173 622.668 609.1 613.203 618.69L554.159 678.519C544.513 688.293 531.354 693.794 517.622 693.794H61.3333C32.9828 693.794 10 670.812 10 642.461L10 573Z" fill="#1A0D3E"/>
</mask>
<g mask="url(#mask2_142_101281)">
<path d="M10 573H628V582.7V582.632C628 582.655 628 582.677 628 582.7C627.982 596.173 622.668 609.1 613.203 618.69L554.159 678.519C544.513 688.293 531.354 693.794 517.622 693.794H61.3333C32.9828 693.794 10 670.812 10 642.461L10 573Z" fill="#1A0D3E"/>
<path d="M10.3667 642.461L10.3667 573.367H627.633V582.632V582.633V582.633V582.633V582.633V582.634V582.634V582.634V582.634V582.635V582.635V582.635V582.636V582.636V582.636V582.636V582.637V582.637V582.637V582.637V582.638V582.638V582.638V582.638V582.639V582.639V582.639V582.639V582.64V582.64V582.64V582.641V582.641V582.641V582.641V582.642V582.642V582.642V582.642V582.643V582.643V582.643V582.643V582.644V582.644V582.644V582.645V582.645V582.645V582.645V582.646V582.646V582.646V582.646V582.647V582.647V582.647V582.647V582.648V582.648V582.648V582.648V582.649V582.649V582.649V582.65V582.65V582.65V582.65V582.651V582.651V582.651V582.651V582.652V582.652V582.652V582.652V582.653V582.653V582.653V582.654V582.654V582.654V582.654V582.655V582.655V582.655V582.655V582.656V582.656V582.656V582.656V582.657V582.657V582.657V582.657V582.658V582.658V582.658V582.659V582.659V582.659V582.659V582.66V582.66V582.66V582.66V582.661V582.661V582.661V582.661V582.662V582.662V582.662V582.662V582.663V582.663V582.663V582.664V582.664V582.664V582.664V582.665V582.665V582.665V582.665V582.666V582.666V582.666V582.666V582.667V582.667V582.667V582.668V582.668V582.668V582.668V582.669V582.669V582.669V582.669V582.67V582.67V582.67V582.67V582.671V582.671V582.671V582.671V582.672V582.672V582.672V582.673V582.673V582.673V582.673V582.674V582.674V582.674V582.674V582.675V582.675V582.675V582.675V582.676V582.676V582.676V582.677V582.677V582.677V582.677V582.678V582.678V582.678V582.678V582.679V582.679V582.679V582.679V582.68V582.68V582.68V582.68V582.681V582.681V582.681V582.682V582.682V582.682V582.682V582.683V582.683V582.683V582.683V582.684V582.684V582.684V582.684V582.685V582.685V582.685V582.686V582.686V582.686V582.686V582.687V582.687V582.687V582.687V582.688V582.688V582.688V582.688V582.689V582.689V582.689V582.689V582.69V582.69V582.69V582.691V582.691V582.691V582.691V582.692V582.692V582.692V582.692V582.693V582.693V582.693V582.693V582.694V582.694V582.694V582.695V582.695V582.695V582.695V582.696V582.696V582.696V582.696V582.697V582.697V582.697V582.697V582.698V582.698V582.698V582.698V582.699V582.699V582.699V582.7C627.616 596.076 622.34 608.911 612.942 618.433L553.898 678.261C544.321 687.965 531.256 693.428 517.622 693.428H61.3333C33.1853 693.428 10.3667 670.609 10.3667 642.461Z" stroke="url(#paint2_linear_142_101281)" stroke-width="0.733333"/>
</g>
<path d="M0.366667 652.461L0.366711 111.095C0.384363 97.7181 5.66028 84.8836 15.0576 75.3615L74.1024 15.5329C83.6791 5.82904 96.7445 0.366667 110.378 0.366667H586.667C590.186 0.366667 593.621 0.72325 596.939 1.40213C620.163 6.15456 637.633 26.7042 637.633 51.3334L637.633 592.632L637.633 592.666V592.7C637.616 606.076 632.34 618.911 622.942 628.433L563.898 688.261C554.321 697.965 541.256 703.427 527.622 703.427H51.3333C23.1853 703.427 0.366711 680.609 0.366667 652.461Z" stroke="url(#paint3_linear_142_101281)" stroke-width="0.733333"/>
<path d="M10.3667 523.266L10.3667 121.095C10.3844 107.718 15.6603 94.8836 25.0576 85.3616L84.1024 25.5329C93.6791 15.829 106.744 10.3667 120.378 10.3667H576.667C580.186 10.3667 583.621 10.7232 586.939 11.4021C610.163 16.1546 627.633 36.7042 627.633 61.3334L627.633 523.266H10.3667Z" stroke="url(#paint4_linear_142_101281)" stroke-width="0.733333"/>
</g>
<defs>
<filter id="filter0_f_142_101281" x="-161.71" y="-15.7771" width="2629.75" height="2629.75" filterUnits="userSpaceOnUse" color-interpolation-filters="sRGB">
<feFlood flood-opacity="0" result="BackgroundImageFix"/>
<feBlend mode="normal" in="SourceGraphic" in2="BackgroundImageFix" result="shape"/>
<feGaussianBlur stdDeviation="206.255" result="effect1_foregroundBlur_142_101281"/>
</filter>
<filter id="filter1_f_142_101281" x="-1779.44" y="-1904.84" width="2629.75" height="2629.75" filterUnits="userSpaceOnUse" color-interpolation-filters="sRGB">
<feFlood flood-opacity="0" result="BackgroundImageFix"/>
<feBlend mode="normal" in="SourceGraphic" in2="BackgroundImageFix" result="shape"/>
<feGaussianBlur stdDeviation="206.255" result="effect1_foregroundBlur_142_101281"/>
</filter>
<radialGradient id="paint0_angular_142_101281" cx="0" cy="0" r="1" gradientUnits="userSpaceOnUse" gradientTransform="translate(1153.17 1299.1) rotate(89.4093) scale(1167.12)">
<stop offset="0.0472823" stop-color="#C8A5E7"/>
<stop offset="0.209313" stop-color="white"/>
<stop offset="0.388494" stop-color="#AF9CFD"/>
<stop offset="0.474016" stop-color="white" stop-opacity="0.501806"/>
<stop offset="0.575015" stop-color="#A291DA" stop-opacity="0.61"/>
<stop offset="0.729849" stop-color="#E5E7FC"/>
<stop offset="0.837991" stop-color="#A291DA" stop-opacity="0.757761"/>
</radialGradient>
<radialGradient id="paint1_angular_142_101281" cx="0" cy="0" r="1" gradientUnits="userSpaceOnUse" gradientTransform="translate(-464.567 -589.966) rotate(89.4093) scale(1167.12)">
<stop offset="0.0472823" stop-color="#C8A5E7"/>
<stop offset="0.209313" stop-color="white"/>
<stop offset="0.388494" stop-color="#AF9CFD"/>
<stop offset="0.474016" stop-color="white" stop-opacity="0.501806"/>
<stop offset="0.575015" stop-color="#A291DA" stop-opacity="0.61"/>
<stop offset="0.729849" stop-color="#E5E7FC"/>
<stop offset="0.837991" stop-color="#A291DA" stop-opacity="0.757761"/>
</radialGradient>
<linearGradient id="paint2_linear_142_101281" x1="319" y1="78.1083" x2="319" y2="693.794" gradientUnits="userSpaceOnUse">
<stop stop-color="#9E69B2"/>
<stop offset="1" stop-color="#B2698B" stop-opacity="0"/>
</linearGradient>
<linearGradient id="paint3_linear_142_101281" x1="319" y1="0" x2="319" y2="703.794" gradientUnits="userSpaceOnUse">
<stop stop-color="#9E69B2"/>
<stop offset="1" stop-color="#B2698B" stop-opacity="0"/>
</linearGradient>
<linearGradient id="paint4_linear_142_101281" x1="319" y1="2.30504e-06" x2="319" y2="703.794" gradientUnits="userSpaceOnUse">
<stop stop-color="#9E69B2"/>
<stop offset="1" stop-color="#B2698B" stop-opacity="0"/>
</linearGradient>
</defs>
</svg>
